<svg width="257" height="43" viewBox="0 0 257 43" fill="none" xmlns="http://www.w3.org/2000/svg">
<path d="M27.6124 8.84551H10.2061V16.5232H26.3417V24.5068H10.2061V42.1381H0.5V0.861938H27.6124V8.84551Z" fill="url(#paint0_linear_306_226)"/>
<path d="M73.9076 42.1381H61.9916L51.6811 27.0012H47.1776V42.1381H37.4824V0.861978H53.8655C55.7955 0.834307 57.7246 0.967089 59.6361 1.25917C61.2366 1.5331 62.7727 2.14568 64.1578 3.06244C65.5372 3.93718 66.7015 5.16381 67.551 6.63716C68.3883 8.10677 68.807 9.94974 68.807 12.1661C68.807 15.2165 68.159 17.7029 66.8629 19.6253C65.5668 21.5477 63.7161 23.1458 61.3108 24.4194L73.9076 42.1381ZM58.6858 13.5006C58.7103 12.573 58.5093 11.6549 58.1033 10.8394C57.6327 10.0293 56.9262 9.4152 56.0973 9.09576C55.3571 8.78054 54.5753 8.59682 53.7818 8.55161C52.9008 8.48806 51.8765 8.45628 50.709 8.45628H47.1776V19.5777H50.1739C51.4822 19.5946 52.79 19.511 54.0876 19.3274C55.0436 19.2031 55.954 18.8119 56.7308 18.1915C57.352 17.6903 57.8601 17.0409 58.2162 16.2929C58.5637 15.4127 58.7243 14.4581 58.6858 13.5006Z" fill="url(#paint1_linear_306_226)"/>
<path d="M118.095 21.5159C118.095 28.0934 116.367 33.3191 112.911 37.1931C109.454 41.067 104.678 43.0026 98.5807 43C92.4983 43 87.729 41.0644 84.2727 37.1931C80.8165 33.3218 79.0884 28.096 79.0884 21.5159C79.0884 14.8775 80.8165 9.6319 84.2727 5.77914C87.729 1.92638 92.4983 0 98.5807 0C104.649 0 109.417 1.92638 112.885 5.77914C116.353 9.6319 118.09 14.8775 118.095 21.5159ZM105.163 31.966C106.135 30.6545 106.852 29.1409 107.271 27.5174C107.758 25.5529 107.989 23.523 107.956 21.4881C107.999 19.3483 107.734 17.2144 107.169 15.1648C106.742 13.6271 106.043 12.1954 105.112 10.9506C104.311 9.89496 103.286 9.06757 102.127 8.53963C99.8772 7.55358 97.3672 7.54363 95.1111 8.51182C93.9531 9.04342 92.9228 9.85889 92.1003 10.895C91.1442 12.1509 90.4387 13.6105 90.0287 15.1807C89.4634 17.2414 89.1932 19.385 89.2277 21.5357C89.1849 23.6589 89.4466 25.7764 90.0032 27.8114C90.4273 29.3529 91.1222 30.7896 92.0493 32.0415C92.8498 33.093 93.8698 33.9198 95.0237 34.4524C96.1571 34.9761 97.3754 35.2462 98.6062 35.2468C99.8373 35.2491 101.056 34.9788 102.189 34.4524C103.349 33.8969 104.37 33.0439 105.163 31.966Z" fill="url(#paint2_linear_306_226)"/>
<path d="M168.329 42.1381H158.623V14.5015L151.611 32.4387H144.883L137.871 14.5015V42.1381H128.664V0.861938H139.997L148.524 21.5676L157.01 0.861938H168.329V42.1381Z" fill="url(#paint3_linear_306_226)"/>
<path d="M210.715 8.84551H198.897V42.1381H189.14V8.84551H177.322V0.861938H210.715V8.84551Z" fill="url(#paint4_linear_306_226)"/>
<path d="M256.5 21.5159C256.5 28.0934 254.772 33.3191 251.316 37.1931C247.859 41.067 243.085 43.0026 236.993 43C230.908 43 226.139 41.0644 222.685 37.1931C219.231 33.3218 217.503 28.096 217.501 21.5159C217.501 14.8775 219.229 9.6319 222.685 5.77914C226.141 1.92638 230.911 0 236.993 0C243.061 0 247.829 1.92638 251.297 5.77914C254.766 9.6319 256.5 14.8775 256.5 21.5159ZM243.568 31.966C244.54 30.6545 245.257 29.1409 245.676 27.5174C246.163 25.5529 246.394 23.523 246.361 21.4881C246.404 19.3483 246.139 17.2144 245.574 15.1648C245.147 13.6271 244.448 12.1954 243.517 10.9506C242.716 9.89496 241.691 9.06757 240.532 8.53963C238.282 7.55358 235.772 7.54363 233.516 8.51182C232.358 9.04342 231.328 9.85889 230.505 10.895C229.549 12.1509 228.844 13.6105 228.434 15.1807C227.868 17.2414 227.598 19.385 227.633 21.5357C227.59 23.6589 227.852 25.7764 228.408 27.8114C228.83 29.3447 229.52 30.7744 230.44 32.0216C231.24 33.0732 232.26 33.9 233.414 34.4326C234.548 34.9562 235.766 35.2264 236.997 35.2269C238.228 35.2292 239.447 34.959 240.579 34.4326C241.743 33.8849 242.768 33.0387 243.568 31.966Z" fill="url(#paint5_linear_306_226)"/>
<defs>
<linearGradient id="paint0_linear_306_226" x1="0.5" y1="21.5" x2="38.276" y2="21.5" gradientUnits="userSpaceOnUse">
<stop stop-color="#901B1D"/>
<stop offset="0.16" stop-color="#AE0A0A"/>
<stop offset="0.32" stop-color="#A01C28"/>
<stop offset="0.46" stop-color="#952636"/>
<stop offset="0.61" stop-color="#833347"/>
<stop offset="0.78" stop-color="#A28D8D"/>
<stop offset="0.92" stop-color="#76292C"/>
</linearGradient>
<linearGradient id="paint1_linear_306_226" x1="37.4678" y1="21.5001" x2="86.9887" y2="21.5001" gradientUnits="userSpaceOnUse">
<stop stop-color="#901B1D"/>
<stop offset="0.16" stop-color="#AE0A0A"/>
<stop offset="0.32" stop-color="#A01C28"/>
<stop offset="0.46" stop-color="#952636"/>
<stop offset="0.78" stop-color="#A28D8D"/>
<stop offset="0.92" stop-color="#76292C"/>
</linearGradient>
<linearGradient id="paint2_linear_306_226" x1="79.0884" y1="21.5" x2="137.933" y2="21.5" gradientUnits="userSpaceOnUse">
<stop stop-color="#901B1D"/>
<stop offset="0.16" stop-color="#AE0A0A"/>
<stop offset="0.32" stop-color="#A01C28"/>
<stop offset="0.46" stop-color="#952636"/>
<stop offset="0.61" stop-color="#833347"/>
<stop offset="0.78" stop-color="#A28D8D"/>
<stop offset="0.92" stop-color="#76292C"/>
</linearGradient>
<linearGradient id="paint3_linear_306_226" x1="128.664" y1="21.5" x2="188.961" y2="21.5" gradientUnits="userSpaceOnUse">
<stop stop-color="#901B1D"/>
<stop offset="0.16" stop-color="#AE0A0A"/>
<stop offset="0.32" stop-color="#A01C28"/>
<stop offset="0.46" stop-color="#952636"/>
<stop offset="0.61" stop-color="#833347"/>
<stop offset="0.78" stop-color="#A28D8D"/>
<stop offset="0.92" stop-color="#76292C"/>
</linearGradient>
<linearGradient id="paint4_linear_306_226" x1="177.322" y1="21.5" x2="225.208" y2="21.5" gradientUnits="userSpaceOnUse">
<stop stop-color="#901B1D"/>
<stop offset="0.16" stop-color="#AE0A0A"/>
<stop offset="0.32" stop-color="#A01C28"/>
<stop offset="0.46" stop-color="#952636"/>
<stop offset="0.61" stop-color="#833347"/>
<stop offset="0.78" stop-color="#A28D8D"/>
<stop offset="0.92" stop-color="#76292C"/>
</linearGradient>
<linearGradient id="paint5_linear_306_226" x1="217.493" y1="21.5" x2="274.54" y2="21.5" gradientUnits="userSpaceOnUse">
<stop stop-color="#901B1D"/>
<stop offset="0.16" stop-color="#AE0A0A"/>
<stop offset="0.32" stop-color="#A01C28"/>
<stop offset="0.46" stop-color="#952636"/>
<stop offset="0.61" stop-color="#833347"/>
<stop offset="0.78" stop-color="#A28D8D"/>
<stop offset="0.92" stop-color="#76292C"/>
</linearGradient>
</defs>
</svg>
