<svg width="548" height="92" viewBox="0 0 548 92" fill="none" xmlns="http://www.w3.org/2000/svg">
<path d="M58.0374 18.9254H20.7772V35.3521H55.3175V52.4332H20.7772V90.1561H0V1.84424H58.0374V18.9254Z" fill="url(#paint0_linear_223_1931)"/>
<path d="M157.138 90.1559H131.63L109.559 57.7698H99.9191V90.1559H79.1653V1.84408H114.236C118.367 1.78488 122.496 2.06897 126.588 2.69389C130.014 3.27997 133.302 4.59061 136.267 6.55204C139.22 8.42359 141.712 11.048 143.531 14.2003C145.323 17.3446 146.22 21.2877 146.22 26.0296C146.22 32.5561 144.832 37.8758 142.058 41.9889C139.283 46.102 135.322 49.521 130.173 52.2461L157.138 90.1559ZM124.554 28.8849C124.606 26.9003 124.176 24.9359 123.307 23.1912C122.3 21.4579 120.787 20.144 119.013 19.4605C117.428 18.7861 115.755 18.3931 114.056 18.2963C112.17 18.1603 109.978 18.0924 107.479 18.0924H99.9191V41.8869H106.333C109.134 41.9233 111.933 41.7444 114.711 41.3516C116.757 41.0856 118.706 40.2485 120.369 38.9211C121.699 37.8489 122.786 36.4595 123.549 34.8591C124.293 32.9758 124.636 30.9335 124.554 28.8849Z" fill="url(#paint1_linear_223_1931)"/>
<path d="M251.727 46.034C251.727 60.1068 248.027 71.2874 240.629 79.5758C233.23 87.8643 223.005 92.0057 209.954 92C196.934 92 186.725 87.8586 179.326 79.5758C171.928 71.2931 168.228 60.1124 168.228 46.034C168.228 31.8309 171.928 20.6078 179.326 12.3647C186.725 4.12155 196.934 0 209.954 0C222.943 0 233.15 4.12155 240.574 12.3647C247.999 20.6078 251.716 31.8309 251.727 46.034ZM224.045 68.3924C226.125 65.5863 227.66 62.348 228.557 58.8745C229.6 54.6712 230.093 50.3283 230.022 45.9745C230.116 41.3964 229.548 36.8309 228.339 32.4456C227.424 29.1556 225.929 26.0926 223.935 23.4292C222.22 21.1706 220.027 19.4004 217.545 18.2708C212.729 16.1611 207.356 16.1399 202.527 18.2113C200.048 19.3487 197.843 21.0934 196.082 23.3102C194.035 25.9974 192.525 29.1202 191.647 32.4796C190.437 36.8886 189.859 41.4749 189.933 46.0765C189.841 50.6191 190.401 55.1494 191.593 59.5034C192.501 62.8015 193.988 65.8754 195.973 68.5538C197.686 70.8037 199.87 72.5726 202.34 73.7122C204.766 74.8326 207.374 75.4105 210.009 75.4118C212.644 75.4166 215.253 74.8384 217.677 73.7122C220.162 72.5237 222.346 70.6987 224.045 68.3924Z" fill="url(#paint2_linear_223_1931)"/>
<path d="M359.26 90.1561H338.483V31.0266L323.473 69.4038H309.07L294.06 31.0266V90.1561H274.351V1.84424H298.612L316.864 46.1446L335.03 1.84424H359.26V90.1561Z" fill="url(#paint3_linear_223_1931)"/>
<path d="M449.991 18.9254H424.693V90.1561H403.807V18.9254H378.51V1.84424H449.991V18.9254Z" fill="url(#paint4_linear_223_1931)"/>
<path d="M548 46.034C548 60.1068 544.301 71.2874 536.902 79.5758C529.504 87.8643 519.284 92.0057 506.243 92C493.218 92 483.008 87.8586 475.615 79.5758C468.222 71.2931 464.523 60.1124 464.517 46.034C464.517 31.8309 468.217 20.6078 475.615 12.3647C483.014 4.12155 493.223 0 506.243 0C519.232 0 529.439 4.12155 536.863 12.3647C544.288 20.6078 548 31.8309 548 46.034ZM520.318 68.3924C522.399 65.5863 523.934 62.348 524.83 58.8745C525.874 54.6712 526.367 50.3283 526.295 45.9745C526.389 41.3964 525.821 36.8309 524.612 32.4456C523.698 29.1556 522.202 26.0926 520.209 23.4292C518.493 21.1706 516.3 19.4004 513.818 18.2708C509.003 16.1611 503.63 16.1399 498.8 18.2113C496.321 19.3487 494.116 21.0934 492.355 23.3102C490.309 25.9974 488.798 29.1202 487.921 32.4796C486.711 36.8886 486.132 41.4749 486.206 46.0765C486.115 50.6191 486.675 55.1494 487.866 59.5034C488.769 62.7839 490.246 65.8428 492.215 68.5113C493.929 70.7612 496.112 72.5301 498.582 73.6697C501.008 74.7901 503.616 75.368 506.251 75.3693C508.886 75.3741 511.495 74.7959 513.92 73.6697C516.411 72.498 518.606 70.6875 520.318 68.3924Z" fill="url(#paint5_linear_223_1931)"/>
<defs>
<linearGradient id="paint0_linear_223_1931" x1="0" y1="46.0001" x2="80.8642" y2="46.0001" gradientUnits="userSpaceOnUse">
<stop stop-color="#901B1D"/>
<stop offset="0.16" stop-color="#AE0A0A"/>
<stop offset="0.32" stop-color="#A01C28"/>
<stop offset="0.46" stop-color="#952636"/>
<stop offset="0.61" stop-color="#833347"/>
<stop offset="0.78" stop-color="#A28D8D"/>
<stop offset="0.92" stop-color="#76292C"/>
</linearGradient>
<linearGradient id="paint1_linear_223_1931" x1="79.1341" y1="46" x2="185.14" y2="46" gradientUnits="userSpaceOnUse">
<stop stop-color="#901B1D"/>
<stop offset="0.16" stop-color="#AE0A0A"/>
<stop offset="0.32" stop-color="#A01C28"/>
<stop offset="0.46" stop-color="#952636"/>
<stop offset="0.78" stop-color="#A28D8D"/>
<stop offset="0.92" stop-color="#76292C"/>
</linearGradient>
<linearGradient id="paint2_linear_223_1931" x1="168.228" y1="46" x2="294.193" y2="46" gradientUnits="userSpaceOnUse">
<stop stop-color="#901B1D"/>
<stop offset="0.16" stop-color="#AE0A0A"/>
<stop offset="0.32" stop-color="#A01C28"/>
<stop offset="0.46" stop-color="#952636"/>
<stop offset="0.61" stop-color="#833347"/>
<stop offset="0.78" stop-color="#A28D8D"/>
<stop offset="0.92" stop-color="#76292C"/>
</linearGradient>
<linearGradient id="paint3_linear_223_1931" x1="274.351" y1="46.0001" x2="403.425" y2="46.0001" gradientUnits="userSpaceOnUse">
<stop stop-color="#901B1D"/>
<stop offset="0.16" stop-color="#AE0A0A"/>
<stop offset="0.32" stop-color="#A01C28"/>
<stop offset="0.46" stop-color="#952636"/>
<stop offset="0.61" stop-color="#833347"/>
<stop offset="0.78" stop-color="#A28D8D"/>
<stop offset="0.92" stop-color="#76292C"/>
</linearGradient>
<linearGradient id="paint4_linear_223_1931" x1="378.51" y1="46.0001" x2="481.016" y2="46.0001" gradientUnits="userSpaceOnUse">
<stop stop-color="#901B1D"/>
<stop offset="0.16" stop-color="#AE0A0A"/>
<stop offset="0.32" stop-color="#A01C28"/>
<stop offset="0.46" stop-color="#952636"/>
<stop offset="0.61" stop-color="#833347"/>
<stop offset="0.78" stop-color="#A28D8D"/>
<stop offset="0.92" stop-color="#76292C"/>
</linearGradient>
<linearGradient id="paint5_linear_223_1931" x1="464.502" y1="46" x2="586.616" y2="46" gradientUnits="userSpaceOnUse">
<stop stop-color="#901B1D"/>
<stop offset="0.16" stop-color="#AE0A0A"/>
<stop offset="0.32" stop-color="#A01C28"/>
<stop offset="0.46" stop-color="#952636"/>
<stop offset="0.61" stop-color="#833347"/>
<stop offset="0.78" stop-color="#A28D8D"/>
<stop offset="0.92" stop-color="#76292C"/>
</linearGradient>
</defs>
</svg>
