<svg width="176" height="154" viewBox="0 0 176 154" fill="none" xmlns="http://www.w3.org/2000/svg">
<path d="M144.632 83.8366L134.666 55.9509L134.342 17.7207L143.479 47.5547L144.632 83.8366Z" fill="#C35757"/>
<path d="M123.003 22.8941L64.1157 57.8617L68.4894 16.3711L123.003 22.8941Z" fill="#C2B8B7"/>
<path d="M68.4894 16.3709L64.1157 57.8615L49.9797 38.2969L52.8269 0.517334L68.4894 16.3709Z" fill="#D2DBEA"/>
<path d="M123.003 22.8939L68.4894 16.3709L52.8269 0.517334L123.003 22.8939Z" fill="white"/>
<path d="M134.666 55.9509L91.3447 60.4351L87.5604 60.8283L77.4305 61.8775L69.5063 62.697L73.4684 59.9491L95.5365 44.6411L100.953 40.8837L134.342 17.7207L134.666 55.9509Z" fill="#C63949"/>
<path d="M144.632 83.8366L69.5063 62.697L134.666 55.9509L144.632 83.8366Z" fill="#772C30"/>
<path d="M45.5562 61.5727L32.2834 76.4146L31.3683 55.5003L43.726 40.21L45.5562 61.5727Z" fill="#7A8090"/>
<path d="M73.1687 70.3422L45.5561 61.5727L43.726 40.21L73.1687 70.3422Z" fill="#968C82"/>
<path d="M73.1687 70.3423L32.2833 76.4147L45.5561 61.5728L73.1687 70.3423Z" fill="#605C5B"/>
<path d="M76.3556 74.0908L62.6592 92.1578L48.3534 80.8369L60.4174 77.93L67.9679 76.112L76.3556 74.0908Z" fill="#EDE8E5"/>
<path d="M62.6592 92.1555L57.2346 105.35L43.0647 94.4793L48.3534 80.8369L62.6592 92.1555Z" fill="#C1C7D7"/>
<path d="M76.3555 74.0908L57.2345 105.35L62.6591 92.1556L76.3555 74.0908Z" fill="#DAD5D7"/>
<path d="M109.579 83.8365L97.3727 107.786L81.5824 80.6181L74.7612 68.8842L74.2357 67.9807L74.4375 68.0713L85.986 73.2535L109.579 83.8365Z" fill="#813951"/>
<path d="M118.426 81.6983L109.579 83.8365L85.986 73.2535L74.4375 68.0713L74.2357 67.9807L74.4255 68.0403L87.7443 72.1755L118.426 81.6983Z" fill="#A66277"/>
<path d="M118.426 81.6985L107.069 103.85L97.3727 107.786L109.579 83.8367L118.426 81.6985Z" fill="#774248"/>
<path opacity="0.71" d="M100.953 40.8835C99.7544 43.7088 94.9751 54.7005 91.3447 60.4349L87.5605 60.8281L77.4306 61.8884L71.948 61.3583L73.4685 59.96L95.5366 44.652L100.953 40.8835Z" fill="#AA3236"/>
<path opacity="0.4" d="M88.0959 72.3942L86.3376 73.4721L86.0559 73.6444L82.2477 80.8368H81.932L75.1128 69.105L74.7891 68.2922L74.7771 68.2612L88.0959 72.3942Z" fill="#642F39"/>
<path opacity="0.71" d="M95.5365 44.6411C93.7263 48.763 90.3876 56.0967 87.5604 60.8283L77.4305 61.8885L69.5063 62.7081L73.4684 59.9601L95.5365 44.6411Z" fill="#963139"/>
<path d="M34.0093 123.731H24.6943V127.838H33.3294V132.108H24.6943V141.539H19.5V119.461H34.0093V123.731Z" fill="url(#paint0_linear_211_1215)"/>
<path d="M58.7846 141.539H52.4077L46.8899 133.443H44.4798V141.539H39.2914V119.461H48.0589C49.0918 119.446 50.1241 119.517 51.1471 119.674C52.0036 119.82 52.8256 120.148 53.5669 120.638C54.3051 121.106 54.9282 121.762 55.3828 122.55C55.8309 123.336 56.055 124.322 56.055 125.508C56.055 127.139 55.7082 128.469 55.0145 129.497C54.3209 130.526 53.3305 131.38 52.0433 132.062L58.7846 141.539ZM50.6386 126.221C50.6516 125.725 50.5441 125.234 50.3268 124.798C50.075 124.365 49.6969 124.036 49.2533 123.865C48.8572 123.697 48.4388 123.598 48.0141 123.574C47.5426 123.54 46.9945 123.523 46.3697 123.523H44.4798V129.472H46.0833C46.7835 129.481 47.4834 129.436 48.1778 129.338C48.6894 129.272 49.1766 129.062 49.5923 128.73C49.9247 128.462 50.1966 128.115 50.3872 127.715C50.5732 127.244 50.6591 126.733 50.6386 126.221Z" fill="url(#paint1_linear_211_1215)"/>
<path d="M82.4316 130.508C82.4316 134.027 81.5068 136.822 79.6572 138.894C77.8075 140.966 75.2513 142.001 71.9885 142C68.7334 142 66.1811 140.965 64.3315 138.894C62.4818 136.823 61.557 134.028 61.557 130.508C61.557 126.958 62.4818 124.152 64.3315 122.091C66.1811 120.03 68.7334 119 71.9885 119C75.2357 119 77.7874 120.03 79.6435 122.091C81.4996 124.152 82.429 126.958 82.4316 130.508ZM75.5111 136.098C76.0312 135.397 76.415 134.587 76.6392 133.719C76.9 132.668 77.0233 131.582 77.0055 130.494C77.0289 129.349 76.8869 128.208 76.5846 127.111C76.3561 126.289 75.9821 125.523 75.4838 124.857C75.0549 124.293 74.5066 123.85 73.8861 123.568C72.6823 123.04 71.339 123.035 70.1317 123.553C69.5119 123.837 68.9606 124.273 68.5204 124.828C68.0088 125.499 67.6312 126.28 67.4118 127.12C67.1093 128.222 66.9647 129.369 66.9832 130.519C66.9603 131.655 67.1003 132.787 67.3982 133.876C67.6251 134.7 67.997 135.469 68.4931 136.138C68.9215 136.701 69.4674 137.143 70.0849 137.428C70.6915 137.708 71.3434 137.853 72.0021 137.853C72.6609 137.854 73.3131 137.71 73.9193 137.428C74.5403 137.131 75.0864 136.675 75.5111 136.098Z" fill="url(#paint2_linear_211_1215)"/>
<path d="M109.315 141.539H104.121V126.757L100.368 136.351H96.7675L93.015 126.757V141.539H88.0876V119.461H94.1529L98.7159 130.536L103.257 119.461H109.315V141.539Z" fill="url(#paint3_linear_211_1215)"/>
<path d="M131.998 123.731H125.673V141.539H120.452V123.731H114.127V119.461H131.998V123.731Z" fill="url(#paint4_linear_211_1215)"/>
<path d="M156.5 130.508C156.5 134.027 155.575 136.822 153.726 138.894C151.876 140.966 149.321 142.001 146.061 142C142.804 142 140.252 140.965 138.404 138.894C136.555 136.823 135.631 134.028 135.629 130.508C135.629 126.958 136.554 124.152 138.404 122.091C140.253 120.03 142.806 119 146.061 119C149.308 119 151.86 120.03 153.716 122.091C155.572 124.152 156.5 126.958 156.5 130.508ZM149.579 136.098C150.1 135.397 150.483 134.587 150.708 133.719C150.968 132.668 151.092 131.582 151.074 130.494C151.097 129.349 150.955 128.208 150.653 127.111C150.424 126.289 150.05 125.523 149.552 124.857C149.123 124.293 148.575 123.85 147.955 123.568C146.751 123.04 145.407 123.035 144.2 123.553C143.58 123.837 143.029 124.273 142.589 124.828C142.077 125.499 141.7 126.28 141.48 127.12C141.178 128.222 141.033 129.369 141.052 130.519C141.029 131.655 141.169 132.787 141.467 133.876C141.692 134.696 142.061 135.461 142.554 136.128C142.982 136.69 143.528 137.133 144.145 137.417C144.752 137.698 145.404 137.842 146.063 137.842C146.722 137.844 147.374 137.699 147.98 137.417C148.603 137.124 149.151 136.672 149.579 136.098Z" fill="url(#paint5_linear_211_1215)"/>
<defs>
<linearGradient id="paint0_linear_211_1215" x1="19.5" y1="130.5" x2="39.7161" y2="130.5" gradientUnits="userSpaceOnUse">
<stop stop-color="#901B1D"/>
<stop offset="0.16" stop-color="#AE0A0A"/>
<stop offset="0.32" stop-color="#A01C28"/>
<stop offset="0.46" stop-color="#952636"/>
<stop offset="0.61" stop-color="#833347"/>
<stop offset="0.78" stop-color="#A28D8D"/>
<stop offset="0.92" stop-color="#76292C"/>
</linearGradient>
<linearGradient id="paint1_linear_211_1215" x1="39.2836" y1="130.5" x2="65.785" y2="130.5" gradientUnits="userSpaceOnUse">
<stop stop-color="#901B1D"/>
<stop offset="0.16" stop-color="#AE0A0A"/>
<stop offset="0.32" stop-color="#A01C28"/>
<stop offset="0.46" stop-color="#952636"/>
<stop offset="0.78" stop-color="#A28D8D"/>
<stop offset="0.92" stop-color="#76292C"/>
</linearGradient>
<linearGradient id="paint2_linear_211_1215" x1="61.557" y1="130.5" x2="93.0481" y2="130.5" gradientUnits="userSpaceOnUse">
<stop stop-color="#901B1D"/>
<stop offset="0.16" stop-color="#AE0A0A"/>
<stop offset="0.32" stop-color="#A01C28"/>
<stop offset="0.46" stop-color="#952636"/>
<stop offset="0.61" stop-color="#833347"/>
<stop offset="0.78" stop-color="#A28D8D"/>
<stop offset="0.92" stop-color="#76292C"/>
</linearGradient>
<linearGradient id="paint3_linear_211_1215" x1="88.0876" y1="130.5" x2="120.356" y2="130.5" gradientUnits="userSpaceOnUse">
<stop stop-color="#901B1D"/>
<stop offset="0.16" stop-color="#AE0A0A"/>
<stop offset="0.32" stop-color="#A01C28"/>
<stop offset="0.46" stop-color="#952636"/>
<stop offset="0.61" stop-color="#833347"/>
<stop offset="0.78" stop-color="#A28D8D"/>
<stop offset="0.92" stop-color="#76292C"/>
</linearGradient>
<linearGradient id="paint4_linear_211_1215" x1="114.127" y1="130.5" x2="139.754" y2="130.5" gradientUnits="userSpaceOnUse">
<stop stop-color="#901B1D"/>
<stop offset="0.16" stop-color="#AE0A0A"/>
<stop offset="0.32" stop-color="#A01C28"/>
<stop offset="0.46" stop-color="#952636"/>
<stop offset="0.61" stop-color="#833347"/>
<stop offset="0.78" stop-color="#A28D8D"/>
<stop offset="0.92" stop-color="#76292C"/>
</linearGradient>
<linearGradient id="paint5_linear_211_1215" x1="135.625" y1="130.5" x2="166.154" y2="130.5" gradientUnits="userSpaceOnUse">
<stop stop-color="#901B1D"/>
<stop offset="0.16" stop-color="#AE0A0A"/>
<stop offset="0.32" stop-color="#A01C28"/>
<stop offset="0.46" stop-color="#952636"/>
<stop offset="0.61" stop-color="#833347"/>
<stop offset="0.78" stop-color="#A28D8D"/>
<stop offset="0.92" stop-color="#76292C"/>
</linearGradient>
</defs>
</svg>
