<svg width="24" height="25" viewBox="0 0 24 25" fill="none" xmlns="http://www.w3.org/2000/svg">
<path fill-rule="evenodd" clip-rule="evenodd" d="M3.6 2.9C3.28174 2.9 2.97652 3.02643 2.75147 3.25147C2.52643 3.47652 2.4 3.78174 2.4 4.1V20.9C2.4 21.2183 2.52643 21.5235 2.75147 21.7485C2.97652 21.9736 3.28174 22.1 3.6 22.1H8.4C9.06274 22.1 9.6 22.6373 9.6 23.3C9.6 23.9627 9.06274 24.5 8.4 24.5H3.6C2.64522 24.5 1.72955 24.1207 1.05442 23.4456C0.379285 22.7705 0 21.8548 0 20.9V4.1C0 3.14522 0.379284 2.22955 1.05442 1.55442C1.72955 0.879284 2.64522 0.5 3.6 0.5H8.4C9.06274 0.5 9.6 1.03726 9.6 1.7C9.6 2.36274 9.06274 2.9 8.4 2.9H3.6ZM15.9515 5.65147C16.4201 5.18284 17.1799 5.18284 17.6485 5.65147L23.6485 11.6515C24.1172 12.1201 24.1172 12.8799 23.6485 13.3485L17.6485 19.3485C17.1799 19.8172 16.4201 19.8172 15.9515 19.3485C15.4828 18.8799 15.4828 18.1201 15.9515 17.6515L19.9029 13.7H8.4C7.73726 13.7 7.2 13.1627 7.2 12.5C7.2 11.8373 7.73726 11.3 8.4 11.3H19.9029L15.9515 7.34853C15.4828 6.8799 15.4828 6.1201 15.9515 5.65147Z" fill="#E65B69"/>
</svg>
