<svg width="261" height="250" viewBox="0 0 261 250" fill="none" xmlns="http://www.w3.org/2000/svg">
<path d="M260.157 192.286L237.34 128.328L236.599 40.6437L257.517 109.07L260.157 192.286Z" fill="#C35757"/>
<path d="M210.639 52.5091L75.8176 132.71L85.8309 37.5481L210.639 52.5091Z" fill="#C2B8B7"/>
<path d="M85.8308 37.5482L75.8175 132.71L43.4536 87.8372L49.9721 1.18677L85.8308 37.5482Z" fill="#D2DBEA"/>
<path d="M210.639 52.5093L85.8309 37.5482L49.9721 1.18677L210.639 52.5093Z" fill="white"/>
<path d="M237.34 128.328L138.158 138.612L129.494 139.514L106.301 141.921L88.1593 143.8L97.2303 137.498L147.755 102.388L160.156 93.7698L236.599 40.6437L237.34 128.328Z" fill="#C63949"/>
<path d="M260.157 192.286L88.1593 143.801L237.34 128.328L260.157 192.286Z" fill="#772C30"/>
<path d="M33.326 141.222L2.93822 175.263L0.84314 127.294L29.1358 92.2247L33.326 141.222Z" fill="#7A8090"/>
<path d="M96.5442 161.335L33.3259 141.222L29.1357 92.2247L96.5442 161.335Z" fill="#968C82"/>
<path d="M96.5443 161.335L2.93829 175.263L33.3261 141.222L96.5443 161.335Z" fill="#605C5B"/>
<path d="M103.84 169.933L72.4829 211.371L39.7302 185.406L67.3504 178.738L84.6371 174.569L103.84 169.933Z" fill="#EDE8E5"/>
<path d="M72.483 211.366L60.0634 241.627L27.6218 216.696L39.7302 185.406L72.483 211.366Z" fill="#C1C7D7"/>
<path d="M103.84 169.933L60.0633 241.627L72.4828 211.366L103.84 169.933Z" fill="#DAD5D7"/>
<path d="M179.904 192.286L151.959 247.215L115.807 184.904L100.19 157.991L98.987 155.919L99.449 156.127L125.889 168.013L179.904 192.286Z" fill="#813951"/>
<path d="M200.159 187.381L179.904 192.286L125.889 168.013L99.449 156.127L98.987 155.919L99.4216 156.056L129.915 165.54L200.159 187.381Z" fill="#A66277"/>
<path d="M200.159 187.382L174.158 238.187L151.958 247.216L179.904 192.286L200.159 187.382Z" fill="#774248"/>
<path opacity="0.71" d="M160.156 93.7699C157.411 100.25 146.469 125.46 138.158 138.612L129.494 139.514L106.301 141.946L93.7492 140.73L97.2303 137.523L147.755 102.413L160.156 93.7699Z" fill="#AA3236"/>
<path opacity="0.4" d="M130.72 166.042L126.694 168.514L126.049 168.909L117.33 185.406H116.608L100.995 158.498L100.254 156.634L100.227 156.563L130.72 166.042Z" fill="#642F39"/>
<path opacity="0.71" d="M147.755 102.388C143.61 111.842 135.966 128.662 129.494 139.514L106.301 141.946L88.1593 143.826L97.2303 137.523L147.755 102.388Z" fill="#963139"/>
</svg>
