<svg width="510" height="487" viewBox="0 0 510 487" fill="none" xmlns="http://www.w3.org/2000/svg">
<path d="M508.353 374.572L463.767 249.982L462.319 79.1738L503.195 212.469L508.353 374.572Z" fill="#C35757"/>
<path d="M411.593 102.288L148.149 258.519L167.716 73.1438L411.593 102.288Z" fill="#C2B8B7"/>
<path d="M167.715 73.1439L148.149 258.519L84.9092 171.107L97.6465 2.31177L167.715 73.1439Z" fill="#D2DBEA"/>
<path d="M411.593 102.288L167.716 73.1439L97.6467 2.31177L411.593 102.288Z" fill="white"/>
<path d="M463.767 249.982L269.963 270.017L253.034 271.774L207.715 276.462L172.265 280.123L189.99 267.846L288.716 199.451L312.948 182.664L462.319 79.1738L463.767 249.982Z" fill="#C63949"/>
<path d="M508.353 374.573L172.265 280.124L463.767 249.983L508.353 374.573Z" fill="#772C30"/>
<path d="M65.1197 275.1L5.74131 341.412L1.64746 247.969L56.932 179.654L65.1197 275.1Z" fill="#7A8090"/>
<path d="M188.649 314.281L65.1195 275.1L56.9319 179.654L188.649 314.281Z" fill="#968C82"/>
<path d="M188.65 314.281L5.74146 341.412L65.1199 275.1L188.65 314.281Z" fill="#605C5B"/>
<path d="M202.907 331.029L141.633 411.75L77.6335 361.17L131.604 348.182L165.383 340.06L202.907 331.029Z" fill="#EDE8E5"/>
<path d="M141.633 411.741L117.365 470.69L53.9736 422.123L77.6338 361.17L141.633 411.741Z" fill="#C1C7D7"/>
<path d="M202.906 331.029L117.365 470.69L141.633 411.74L202.906 331.029Z" fill="#DAD5D7"/>
<path d="M351.536 374.572L296.931 481.576L226.29 360.193L195.774 307.767L193.423 303.73L194.326 304.135L245.99 327.289L351.536 374.572Z" fill="#813951"/>
<path d="M391.115 365.019L351.536 374.572L245.99 327.289L194.326 304.135L193.423 303.73L194.272 303.997L253.856 322.472L391.115 365.019Z" fill="#A66277"/>
<path d="M391.115 365.02L340.309 463.989L296.93 481.576L351.536 374.573L391.115 365.02Z" fill="#774248"/>
<path opacity="0.71" d="M312.948 182.664C307.585 195.286 286.204 244.396 269.963 270.017L253.034 271.774L207.715 276.511L183.188 274.142L189.99 267.895L288.716 199.501L312.948 182.664Z" fill="#AA3236"/>
<path opacity="0.4" d="M255.429 323.45L247.563 328.266L246.303 329.036L229.266 361.17H227.854L197.347 308.754L195.899 305.122L195.845 304.984L255.429 323.45Z" fill="#642F39"/>
<path opacity="0.71" d="M288.716 199.452C280.618 217.868 265.682 250.634 253.034 271.774L207.715 276.511L172.265 280.173L189.99 267.895L288.716 199.452Z" fill="#963139"/>
</svg>
