<svg width="87" height="24" viewBox="0 0 87 24" fill="none" xmlns="http://www.w3.org/2000/svg">
<path d="M4.89258 7.89062H5.83008V12.7002C5.83008 13.234 5.71126 13.6784 5.47363 14.0332C5.236 14.388 4.92025 14.6549 4.52637 14.834C4.13574 15.0098 3.71094 15.0977 3.25195 15.0977C2.77018 15.0977 2.33398 15.0098 1.94336 14.834C1.55599 14.6549 1.24837 14.388 1.02051 14.0332C0.795898 13.6784 0.683594 13.234 0.683594 12.7002V7.89062H1.61621V12.7002C1.61621 13.0713 1.68457 13.3773 1.82129 13.6182C1.95801 13.859 2.14844 14.0381 2.39258 14.1553C2.63997 14.2725 2.92643 14.3311 3.25195 14.3311C3.58073 14.3311 3.86719 14.2725 4.11133 14.1553C4.35872 14.0381 4.55078 13.859 4.6875 13.6182C4.82422 13.3773 4.89258 13.0713 4.89258 12.7002V7.89062ZM8.22617 10.7324V17.0312H7.31797V9.7168H8.14805L8.22617 10.7324ZM11.7857 12.3145V12.417C11.7857 12.8011 11.7402 13.1576 11.649 13.4863C11.5579 13.8118 11.4244 14.0951 11.2486 14.3359C11.0761 14.5768 10.8629 14.764 10.609 14.8975C10.3551 15.0309 10.0637 15.0977 9.73496 15.0977C9.39967 15.0977 9.10345 15.0423 8.84629 14.9316C8.58913 14.821 8.37103 14.6598 8.19199 14.4482C8.01296 14.2367 7.86973 13.9827 7.7623 13.6865C7.65814 13.3903 7.58652 13.0566 7.54746 12.6855V12.1387C7.58652 11.748 7.65977 11.3981 7.76719 11.0889C7.87461 10.7796 8.01621 10.516 8.19199 10.2979C8.37103 10.0765 8.5875 9.90885 8.84141 9.79492C9.09531 9.67773 9.38828 9.61914 9.72031 9.61914C10.0523 9.61914 10.3469 9.68424 10.6041 9.81445C10.8613 9.94141 11.0777 10.1237 11.2535 10.3613C11.4293 10.599 11.5611 10.8838 11.649 11.2158C11.7402 11.5446 11.7857 11.9108 11.7857 12.3145ZM10.8775 12.417V12.3145C10.8775 12.0508 10.8499 11.8034 10.7945 11.5723C10.7392 11.3379 10.6529 11.1328 10.5357 10.957C10.4218 10.778 10.2753 10.638 10.0963 10.5371C9.91725 10.4329 9.70404 10.3809 9.45664 10.3809C9.22878 10.3809 9.03021 10.4199 8.86094 10.498C8.69492 10.5762 8.55332 10.682 8.43613 10.8154C8.31895 10.9456 8.22292 11.0954 8.14805 11.2646C8.07643 11.4307 8.02272 11.6032 7.98691 11.7822V13.0469C8.05202 13.2747 8.14316 13.4896 8.26035 13.6914C8.37754 13.89 8.53379 14.0511 8.7291 14.1748C8.92441 14.2952 9.17018 14.3555 9.46641 14.3555C9.71055 14.3555 9.92051 14.305 10.0963 14.2041C10.2753 14.0999 10.4218 13.9583 10.5357 13.7793C10.6529 13.6003 10.7392 13.3952 10.7945 13.1641C10.8499 12.9297 10.8775 12.6807 10.8775 12.417ZM14.0695 7.5V15H13.1613V7.5H14.0695ZM15.4305 12.417V12.3047C15.4305 11.9238 15.4858 11.5706 15.5965 11.2451C15.7072 10.9163 15.8667 10.6315 16.075 10.3906C16.2833 10.1465 16.5356 9.95768 16.8318 9.82422C17.1281 9.6875 17.4601 9.61914 17.8279 9.61914C18.199 9.61914 18.5327 9.6875 18.8289 9.82422C19.1284 9.95768 19.3823 10.1465 19.5906 10.3906C19.8022 10.6315 19.9633 10.9163 20.074 11.2451C20.1847 11.5706 20.24 11.9238 20.24 12.3047V12.417C20.24 12.7979 20.1847 13.151 20.074 13.4766C19.9633 13.8021 19.8022 14.0869 19.5906 14.3311C19.3823 14.5719 19.13 14.7607 18.8338 14.8975C18.5408 15.0309 18.2088 15.0977 17.8377 15.0977C17.4666 15.0977 17.1329 15.0309 16.8367 14.8975C16.5405 14.7607 16.2866 14.5719 16.075 14.3311C15.8667 14.0869 15.7072 13.8021 15.5965 13.4766C15.4858 13.151 15.4305 12.7979 15.4305 12.417ZM16.3338 12.3047V12.417C16.3338 12.6807 16.3647 12.9297 16.4266 13.1641C16.4884 13.3952 16.5812 13.6003 16.7049 13.7793C16.8318 13.9583 16.9897 14.0999 17.1785 14.2041C17.3673 14.305 17.587 14.3555 17.8377 14.3555C18.0851 14.3555 18.3016 14.305 18.4871 14.2041C18.6759 14.0999 18.8322 13.9583 18.9559 13.7793C19.0796 13.6003 19.1723 13.3952 19.2342 13.1641C19.2993 12.9297 19.3318 12.6807 19.3318 12.417V12.3047C19.3318 12.0443 19.2993 11.7985 19.2342 11.5674C19.1723 11.333 19.0779 11.1263 18.951 10.9473C18.8273 10.765 18.671 10.6217 18.4822 10.5176C18.2967 10.4134 18.0786 10.3613 17.8279 10.3613C17.5805 10.3613 17.3624 10.4134 17.1736 10.5176C16.9881 10.6217 16.8318 10.765 16.7049 10.9473C16.5812 11.1263 16.4884 11.333 16.4266 11.5674C16.3647 11.7985 16.3338 12.0443 16.3338 12.3047ZM24.6381 14.0967V11.377C24.6381 11.1686 24.5958 10.988 24.5111 10.835C24.4298 10.6787 24.3061 10.5583 24.14 10.4736C23.974 10.389 23.7689 10.3467 23.5248 10.3467C23.2969 10.3467 23.0967 10.3857 22.9242 10.4639C22.7549 10.542 22.6215 10.6445 22.5238 10.7715C22.4294 10.8984 22.3822 11.0352 22.3822 11.1816H21.4789C21.4789 10.9928 21.5277 10.8057 21.6254 10.6201C21.723 10.4346 21.863 10.2669 22.0453 10.1172C22.2309 9.96419 22.4522 9.84375 22.7094 9.75586C22.9698 9.66471 23.2595 9.61914 23.5785 9.61914C23.9626 9.61914 24.3012 9.68424 24.5941 9.81445C24.8904 9.94466 25.1215 10.1416 25.2875 10.4053C25.4568 10.6657 25.5414 10.9928 25.5414 11.3867V13.8477C25.5414 14.0234 25.5561 14.2106 25.5854 14.4092C25.6179 14.6077 25.6651 14.7786 25.727 14.9219V15H24.7846C24.739 14.8958 24.7032 14.7575 24.6771 14.585C24.6511 14.4092 24.6381 14.2464 24.6381 14.0967ZM24.7943 11.7969L24.8041 12.4316H23.891C23.6339 12.4316 23.4044 12.4528 23.2025 12.4951C23.0007 12.5342 22.8314 12.5944 22.6947 12.6758C22.558 12.7572 22.4538 12.8597 22.3822 12.9834C22.3106 13.1038 22.2748 13.2454 22.2748 13.4082C22.2748 13.5742 22.3122 13.7256 22.3871 13.8623C22.462 13.999 22.5743 14.1081 22.724 14.1895C22.877 14.2676 23.0642 14.3066 23.2855 14.3066C23.5622 14.3066 23.8064 14.248 24.018 14.1309C24.2296 14.0137 24.3972 13.8704 24.5209 13.7012C24.6479 13.5319 24.7162 13.3675 24.726 13.208L25.1117 13.6426C25.0889 13.7793 25.0271 13.9307 24.9262 14.0967C24.8253 14.2627 24.6902 14.4222 24.5209 14.5752C24.3549 14.7249 24.1563 14.8503 23.9252 14.9512C23.6973 15.0488 23.4402 15.0977 23.1537 15.0977C22.7956 15.0977 22.4815 15.0277 22.2113 14.8877C21.9444 14.7477 21.7361 14.5605 21.5863 14.3262C21.4398 14.0885 21.3666 13.8232 21.3666 13.5303C21.3666 13.2471 21.4219 12.998 21.5326 12.7832C21.6433 12.5651 21.8028 12.3844 22.0111 12.2412C22.2195 12.0947 22.4701 11.984 22.7631 11.9092C23.0561 11.8343 23.3832 11.7969 23.7445 11.7969H24.7943ZM30.4424 13.9746V7.5H31.3506V15H30.5205L30.4424 13.9746ZM26.8877 12.417V12.3145C26.8877 11.9108 26.9365 11.5446 27.0342 11.2158C27.1351 10.8838 27.2767 10.599 27.459 10.3613C27.6445 10.1237 27.8643 9.94141 28.1182 9.81445C28.3753 9.68424 28.6618 9.61914 28.9775 9.61914C29.3096 9.61914 29.5993 9.67773 29.8467 9.79492C30.0973 9.90885 30.3089 10.0765 30.4814 10.2979C30.6572 10.516 30.7956 10.7796 30.8965 11.0889C30.9974 11.3981 31.0674 11.748 31.1064 12.1387V12.5879C31.0706 12.9753 31.0007 13.3236 30.8965 13.6328C30.7956 13.9421 30.6572 14.2057 30.4814 14.4238C30.3089 14.6419 30.0973 14.8096 29.8467 14.9268C29.596 15.0407 29.3031 15.0977 28.9678 15.0977C28.6585 15.0977 28.3753 15.0309 28.1182 14.8975C27.8643 14.764 27.6445 14.5768 27.459 14.3359C27.2767 14.0951 27.1351 13.8118 27.0342 13.4863C26.9365 13.1576 26.8877 12.8011 26.8877 12.417ZM27.7959 12.3145V12.417C27.7959 12.6807 27.8219 12.9281 27.874 13.1592C27.9294 13.3903 28.014 13.5938 28.1279 13.7695C28.2419 13.9453 28.3867 14.0837 28.5625 14.1846C28.7383 14.2822 28.9482 14.3311 29.1924 14.3311C29.4919 14.3311 29.7376 14.2676 29.9297 14.1406C30.125 14.0137 30.2812 13.846 30.3984 13.6377C30.5156 13.4294 30.6068 13.2031 30.6719 12.959V11.7822C30.6328 11.6032 30.5758 11.4307 30.501 11.2646C30.4294 11.0954 30.335 10.9456 30.2178 10.8154C30.1038 10.682 29.9622 10.5762 29.793 10.498C29.627 10.4199 29.43 10.3809 29.2021 10.3809C28.9548 10.3809 28.7415 10.4329 28.5625 10.5371C28.3867 10.638 28.2419 10.778 28.1279 10.957C28.014 11.1328 27.9294 11.3379 27.874 11.5723C27.8219 11.8034 27.7959 12.0508 27.7959 12.3145ZM38.6525 14.0967V11.377C38.6525 11.1686 38.6102 10.988 38.5256 10.835C38.4442 10.6787 38.3205 10.5583 38.1545 10.4736C37.9885 10.389 37.7834 10.3467 37.5393 10.3467C37.3114 10.3467 37.1112 10.3857 36.9387 10.4639C36.7694 10.542 36.6359 10.6445 36.5383 10.7715C36.4439 10.8984 36.3967 11.0352 36.3967 11.1816H35.4934C35.4934 10.9928 35.5422 10.8057 35.6398 10.6201C35.7375 10.4346 35.8775 10.2669 36.0598 10.1172C36.2453 9.96419 36.4667 9.84375 36.7238 9.75586C36.9842 9.66471 37.274 9.61914 37.593 9.61914C37.9771 9.61914 38.3156 9.68424 38.6086 9.81445C38.9048 9.94466 39.1359 10.1416 39.302 10.4053C39.4712 10.6657 39.5559 10.9928 39.5559 11.3867V13.8477C39.5559 14.0234 39.5705 14.2106 39.5998 14.4092C39.6324 14.6077 39.6796 14.7786 39.7414 14.9219V15H38.799C38.7534 14.8958 38.7176 14.7575 38.6916 14.585C38.6656 14.4092 38.6525 14.2464 38.6525 14.0967ZM38.8088 11.7969L38.8186 12.4316H37.9055C37.6483 12.4316 37.4188 12.4528 37.217 12.4951C37.0152 12.5342 36.8459 12.5944 36.7092 12.6758C36.5725 12.7572 36.4683 12.8597 36.3967 12.9834C36.3251 13.1038 36.2893 13.2454 36.2893 13.4082C36.2893 13.5742 36.3267 13.7256 36.4016 13.8623C36.4764 13.999 36.5887 14.1081 36.7385 14.1895C36.8915 14.2676 37.0786 14.3066 37.3 14.3066C37.5767 14.3066 37.8208 14.248 38.0324 14.1309C38.244 14.0137 38.4117 13.8704 38.5354 13.7012C38.6623 13.5319 38.7307 13.3675 38.7404 13.208L39.1262 13.6426C39.1034 13.7793 39.0415 13.9307 38.9406 14.0967C38.8397 14.2627 38.7046 14.4222 38.5354 14.5752C38.3693 14.7249 38.1708 14.8503 37.9396 14.9512C37.7118 15.0488 37.4546 15.0977 37.1682 15.0977C36.8101 15.0977 36.496 15.0277 36.2258 14.8877C35.9589 14.7477 35.7505 14.5605 35.6008 14.3262C35.4543 14.0885 35.3811 13.8232 35.3811 13.5303C35.3811 13.2471 35.4364 12.998 35.5471 12.7832C35.6577 12.5651 35.8173 12.3844 36.0256 12.2412C36.2339 12.0947 36.4846 11.984 36.7775 11.9092C37.0705 11.8343 37.3977 11.7969 37.759 11.7969H38.8088ZM45.8715 14.3555C46.0863 14.3555 46.2849 14.3115 46.4672 14.2236C46.6495 14.1357 46.7992 14.0153 46.9164 13.8623C47.0336 13.7061 47.1003 13.5286 47.1166 13.3301H47.976C47.9597 13.6426 47.8539 13.9339 47.6586 14.2041C47.4665 14.471 47.2143 14.6875 46.9018 14.8535C46.5893 15.0163 46.2458 15.0977 45.8715 15.0977C45.4743 15.0977 45.1277 15.0277 44.8314 14.8877C44.5385 14.7477 44.2943 14.5557 44.099 14.3115C43.907 14.0674 43.7621 13.7874 43.6645 13.4717C43.5701 13.1527 43.5229 12.8158 43.5229 12.4609V12.2559C43.5229 11.901 43.5701 11.5658 43.6645 11.25C43.7621 10.931 43.907 10.6494 44.099 10.4053C44.2943 10.1611 44.5385 9.96908 44.8314 9.8291C45.1277 9.68913 45.4743 9.61914 45.8715 9.61914C46.2849 9.61914 46.6462 9.70378 46.9555 9.87305C47.2647 10.0391 47.5072 10.2669 47.683 10.5566C47.862 10.8431 47.9597 11.1686 47.976 11.5332H47.1166C47.1003 11.3151 47.0385 11.1182 46.9311 10.9424C46.8269 10.7666 46.6837 10.6266 46.5014 10.5225C46.3223 10.415 46.1124 10.3613 45.8715 10.3613C45.5948 10.3613 45.362 10.4167 45.1732 10.5273C44.9877 10.6348 44.8396 10.7812 44.7289 10.9668C44.6215 11.1491 44.5434 11.3525 44.4945 11.5771C44.449 11.7985 44.4262 12.0247 44.4262 12.2559V12.4609C44.4262 12.6921 44.449 12.9199 44.4945 13.1445C44.5401 13.3691 44.6166 13.5726 44.724 13.7549C44.8347 13.9372 44.9828 14.0837 45.1684 14.1943C45.3572 14.3018 45.5915 14.3555 45.8715 14.3555ZM48.9023 12.417V12.3047C48.9023 11.9238 48.9577 11.5706 49.0684 11.2451C49.179 10.9163 49.3385 10.6315 49.5469 10.3906C49.7552 10.1465 50.0075 9.95768 50.3037 9.82422C50.5999 9.6875 50.932 9.61914 51.2998 9.61914C51.6709 9.61914 52.0046 9.6875 52.3008 9.82422C52.6003 9.95768 52.8542 10.1465 53.0625 10.3906C53.2741 10.6315 53.4352 10.9163 53.5459 11.2451C53.6566 11.5706 53.7119 11.9238 53.7119 12.3047V12.417C53.7119 12.7979 53.6566 13.151 53.5459 13.4766C53.4352 13.8021 53.2741 14.0869 53.0625 14.3311C52.8542 14.5719 52.6019 14.7607 52.3057 14.8975C52.0127 15.0309 51.6807 15.0977 51.3096 15.0977C50.9385 15.0977 50.6048 15.0309 50.3086 14.8975C50.0124 14.7607 49.7585 14.5719 49.5469 14.3311C49.3385 14.0869 49.179 13.8021 49.0684 13.4766C48.9577 13.151 48.9023 12.7979 48.9023 12.417ZM49.8057 12.3047V12.417C49.8057 12.6807 49.8366 12.9297 49.8984 13.1641C49.9603 13.3952 50.0531 13.6003 50.1768 13.7793C50.3037 13.9583 50.4616 14.0999 50.6504 14.2041C50.8392 14.305 51.0589 14.3555 51.3096 14.3555C51.557 14.3555 51.7734 14.305 51.959 14.2041C52.1478 14.0999 52.304 13.9583 52.4277 13.7793C52.5514 13.6003 52.6442 13.3952 52.7061 13.1641C52.7712 12.9297 52.8037 12.6807 52.8037 12.417V12.3047C52.8037 12.0443 52.7712 11.7985 52.7061 11.5674C52.6442 11.333 52.5498 11.1263 52.4229 10.9473C52.2992 10.765 52.1429 10.6217 51.9541 10.5176C51.7686 10.4134 51.5505 10.3613 51.2998 10.3613C51.0524 10.3613 50.8343 10.4134 50.6455 10.5176C50.46 10.6217 50.3037 10.765 50.1768 10.9473C50.0531 11.1263 49.9603 11.333 49.8984 11.5674C49.8366 11.7985 49.8057 12.0443 49.8057 12.3047ZM55.898 10.7324V17.0312H54.9898V9.7168H55.8199L55.898 10.7324ZM59.4576 12.3145V12.417C59.4576 12.8011 59.412 13.1576 59.3209 13.4863C59.2298 13.8118 59.0963 14.0951 58.9205 14.3359C58.748 14.5768 58.5348 14.764 58.2809 14.8975C58.027 15.0309 57.7356 15.0977 57.4068 15.0977C57.0716 15.0977 56.7753 15.0423 56.5182 14.9316C56.261 14.821 56.0429 14.6598 55.8639 14.4482C55.6848 14.2367 55.5416 13.9827 55.4342 13.6865C55.33 13.3903 55.2584 13.0566 55.2193 12.6855V12.1387C55.2584 11.748 55.3316 11.3981 55.4391 11.0889C55.5465 10.7796 55.6881 10.516 55.8639 10.2979C56.0429 10.0765 56.2594 9.90885 56.5133 9.79492C56.7672 9.67773 57.0602 9.61914 57.3922 9.61914C57.7242 9.61914 58.0188 9.68424 58.276 9.81445C58.5331 9.94141 58.7496 10.1237 58.9254 10.3613C59.1012 10.599 59.233 10.8838 59.3209 11.2158C59.412 11.5446 59.4576 11.9108 59.4576 12.3145ZM58.5494 12.417V12.3145C58.5494 12.0508 58.5217 11.8034 58.4664 11.5723C58.4111 11.3379 58.3248 11.1328 58.2076 10.957C58.0937 10.778 57.9472 10.638 57.7682 10.5371C57.5891 10.4329 57.3759 10.3809 57.1285 10.3809C56.9007 10.3809 56.7021 10.4199 56.5328 10.498C56.3668 10.5762 56.2252 10.682 56.108 10.8154C55.9908 10.9456 55.8948 11.0954 55.8199 11.2646C55.7483 11.4307 55.6946 11.6032 55.6588 11.7822V13.0469C55.7239 13.2747 55.815 13.4896 55.9322 13.6914C56.0494 13.89 56.2057 14.0511 56.401 14.1748C56.5963 14.2952 56.8421 14.3555 57.1383 14.3555C57.3824 14.3555 57.5924 14.305 57.7682 14.2041C57.9472 14.0999 58.0937 13.9583 58.2076 13.7793C58.3248 13.6003 58.4111 13.3952 58.4664 13.1641C58.5217 12.9297 58.5494 12.6807 58.5494 12.417ZM62.1857 14.4531L63.6555 9.7168H64.6223L62.5031 15.8154C62.4543 15.9456 62.3892 16.0856 62.3078 16.2354C62.2297 16.3883 62.1288 16.5332 62.0051 16.6699C61.8814 16.8066 61.7316 16.9173 61.5559 17.002C61.3833 17.0898 61.1766 17.1338 60.9357 17.1338C60.8641 17.1338 60.773 17.124 60.6623 17.1045C60.5516 17.085 60.4735 17.0687 60.4279 17.0557L60.423 16.3232C60.4491 16.3265 60.4898 16.3298 60.5451 16.333C60.6037 16.3395 60.6444 16.3428 60.6672 16.3428C60.8723 16.3428 61.0464 16.3151 61.1896 16.2598C61.3329 16.2077 61.4533 16.1182 61.551 15.9912C61.6519 15.8675 61.7382 15.6966 61.8098 15.4785L62.1857 14.4531ZM61.1066 9.7168L62.4787 13.8184L62.7131 14.7705L62.0637 15.1025L60.1203 9.7168H61.1066Z" fill="#001E2F"/>
<path d="M79.4714 5.52851C79.2111 5.26816 78.7889 5.26816 78.5286 5.52851L75.1953 8.86185C74.9349 9.1222 74.9349 9.54431 75.1953 9.80466C75.4556 10.065 75.8777 10.065 76.1381 9.80466L78.3333 7.60939V14.0476C78.3333 14.4157 78.6318 14.7142 79 14.7142C79.3682 14.7142 79.6667 14.4157 79.6667 14.0476V7.60939L81.8619 9.80466C82.1223 10.065 82.5444 10.065 82.8047 9.80466C83.0651 9.54431 83.0651 9.1222 82.8047 8.86185L79.4714 5.52851Z" fill="#001E2F"/>
<path d="M73.6667 13.9999C73.6667 13.6317 73.3682 13.3333 73 13.3333C72.6318 13.3333 72.3333 13.6317 72.3333 13.9999V16.6666C72.3333 17.197 72.544 17.7057 72.9191 18.0808C73.2942 18.4559 73.8029 18.6666 74.3333 18.6666H83.6667C84.1971 18.6666 84.7058 18.4559 85.0809 18.0808C85.456 17.7057 85.6667 17.197 85.6667 16.6666V13.9999C85.6667 13.6317 85.3682 13.3333 85 13.3333C84.6318 13.3333 84.3333 13.6317 84.3333 13.9999V16.6666C84.3333 16.8434 84.2631 17.013 84.1381 17.138C84.013 17.263 83.8435 17.3333 83.6667 17.3333H74.3333C74.1565 17.3333 73.987 17.263 73.8619 17.138C73.7369 17.013 73.6667 16.8434 73.6667 16.6666V13.9999Z" fill="#001E2F"/>
</svg>
