<svg width="157" height="24" viewBox="0 0 157 24" fill="none" xmlns="http://www.w3.org/2000/svg">
<path d="M9.30664 5.20312H10.9941V13.8604C10.9941 14.8213 10.7803 15.6211 10.3525 16.2598C9.9248 16.8984 9.35645 17.3789 8.64746 17.7012C7.94434 18.0176 7.17969 18.1758 6.35352 18.1758C5.48633 18.1758 4.70117 18.0176 3.99805 17.7012C3.30078 17.3789 2.74707 16.8984 2.33691 16.2598C1.93262 15.6211 1.73047 14.8213 1.73047 13.8604V5.20312H3.40918V13.8604C3.40918 14.5283 3.53223 15.0791 3.77832 15.5127C4.02441 15.9463 4.36719 16.2686 4.80664 16.4795C5.25195 16.6904 5.76758 16.7959 6.35352 16.7959C6.94531 16.7959 7.46094 16.6904 7.90039 16.4795C8.3457 16.2686 8.69141 15.9463 8.9375 15.5127C9.18359 15.0791 9.30664 14.5283 9.30664 13.8604V5.20312ZM15.1871 10.3184V21.6562H13.5523V8.49023H15.0465L15.1871 10.3184ZM21.5943 13.166V13.3506C21.5943 14.042 21.5123 14.6836 21.3482 15.2754C21.1842 15.8613 20.9439 16.3711 20.6275 16.8047C20.317 17.2383 19.9332 17.5752 19.4762 17.8154C19.0191 18.0557 18.4947 18.1758 17.9029 18.1758C17.2994 18.1758 16.7662 18.0762 16.3033 17.877C15.8404 17.6777 15.4479 17.3877 15.1256 17.0068C14.8033 16.626 14.5455 16.1689 14.3521 15.6357C14.1646 15.1025 14.0357 14.502 13.9654 13.834V12.8496C14.0357 12.1465 14.1676 11.5166 14.3609 10.96C14.5543 10.4033 14.8092 9.92871 15.1256 9.53613C15.4479 9.1377 15.8375 8.83594 16.2945 8.63086C16.7516 8.41992 17.2789 8.31445 17.8766 8.31445C18.4742 8.31445 19.0045 8.43164 19.4674 8.66602C19.9303 8.89453 20.3199 9.22266 20.6363 9.65039C20.9527 10.0781 21.19 10.5908 21.3482 11.1885C21.5123 11.7803 21.5943 12.4395 21.5943 13.166ZM19.9596 13.3506V13.166C19.9596 12.6914 19.9098 12.2461 19.8102 11.8301C19.7105 11.4082 19.5553 11.0391 19.3443 10.7227C19.1393 10.4004 18.8756 10.1484 18.5533 9.9668C18.2311 9.7793 17.8473 9.68555 17.402 9.68555C16.9918 9.68555 16.6344 9.75586 16.3297 9.89648C16.0309 10.0371 15.776 10.2275 15.565 10.4678C15.3541 10.7021 15.1812 10.9717 15.0465 11.2764C14.9176 11.5752 14.8209 11.8857 14.7564 12.208V14.4844C14.8736 14.8945 15.0377 15.2812 15.2486 15.6445C15.4596 16.002 15.7408 16.292 16.0924 16.5146C16.4439 16.7314 16.8863 16.8398 17.4195 16.8398C17.859 16.8398 18.2369 16.749 18.5533 16.5674C18.8756 16.3799 19.1393 16.125 19.3443 15.8027C19.5553 15.4805 19.7105 15.1113 19.8102 14.6953C19.9098 14.2734 19.9596 13.8252 19.9596 13.3506ZM25.5852 4.5V18H23.9504V4.5H25.5852ZM27.9148 13.3506V13.1484C27.9148 12.4629 28.0145 11.8271 28.2137 11.2412C28.4129 10.6494 28.7 10.1367 29.075 9.70312C29.45 9.26367 29.9041 8.92383 30.4373 8.68359C30.9705 8.4375 31.5682 8.31445 32.2303 8.31445C32.8982 8.31445 33.4988 8.4375 34.032 8.68359C34.5711 8.92383 35.0281 9.26367 35.4031 9.70312C35.784 10.1367 36.074 10.6494 36.2732 11.2412C36.4725 11.8271 36.5721 12.4629 36.5721 13.1484V13.3506C36.5721 14.0361 36.4725 14.6719 36.2732 15.2578C36.074 15.8438 35.784 16.3564 35.4031 16.7959C35.0281 17.2295 34.574 17.5693 34.0408 17.8154C33.5135 18.0557 32.9158 18.1758 32.2479 18.1758C31.5799 18.1758 30.9793 18.0557 30.4461 17.8154C29.9129 17.5693 29.4559 17.2295 29.075 16.7959C28.7 16.3564 28.4129 15.8438 28.2137 15.2578C28.0145 14.6719 27.9148 14.0361 27.9148 13.3506ZM29.5408 13.1484V13.3506C29.5408 13.8252 29.5965 14.2734 29.7078 14.6953C29.8191 15.1113 29.9861 15.4805 30.2088 15.8027C30.4373 16.125 30.7215 16.3799 31.0613 16.5674C31.4012 16.749 31.7967 16.8398 32.2479 16.8398C32.6932 16.8398 33.0828 16.749 33.4168 16.5674C33.7566 16.3799 34.0379 16.125 34.2605 15.8027C34.4832 15.4805 34.6502 15.1113 34.7615 14.6953C34.8787 14.2734 34.9373 13.8252 34.9373 13.3506V13.1484C34.9373 12.6797 34.8787 12.2373 34.7615 11.8213C34.6502 11.3994 34.4803 11.0273 34.2518 10.7051C34.0291 10.377 33.7479 10.1191 33.408 9.93164C33.074 9.74414 32.6814 9.65039 32.2303 9.65039C31.785 9.65039 31.3924 9.74414 31.0525 9.93164C30.7186 10.1191 30.4373 10.377 30.2088 10.7051C29.9861 11.0273 29.8191 11.3994 29.7078 11.8213C29.5965 12.2373 29.5408 12.6797 29.5408 13.1484ZM44.3686 16.374V11.4785C44.3686 11.1035 44.2924 10.7783 44.14 10.5029C43.9936 10.2217 43.7709 10.0049 43.4721 9.85254C43.1732 9.7002 42.8041 9.62402 42.3646 9.62402C41.9545 9.62402 41.5941 9.69434 41.2836 9.83496C40.9789 9.97559 40.7387 10.1602 40.5629 10.3887C40.393 10.6172 40.308 10.8633 40.308 11.127H38.682C38.682 10.7871 38.7699 10.4502 38.9457 10.1162C39.1215 9.78223 39.3734 9.48047 39.7016 9.21094C40.0355 8.93555 40.434 8.71875 40.8969 8.56055C41.3656 8.39648 41.8871 8.31445 42.4613 8.31445C43.1527 8.31445 43.7621 8.43164 44.2895 8.66602C44.8227 8.90039 45.2387 9.25488 45.5375 9.72949C45.8422 10.1982 45.9945 10.7871 45.9945 11.4961V15.9258C45.9945 16.2422 46.0209 16.5791 46.0736 16.9365C46.1322 17.2939 46.2172 17.6016 46.3285 17.8594V18H44.6322C44.5502 17.8125 44.4857 17.5635 44.4389 17.2529C44.392 16.9365 44.3686 16.6436 44.3686 16.374ZM44.6498 12.2344L44.6674 13.377H43.0238C42.5609 13.377 42.1479 13.415 41.7846 13.4912C41.4213 13.5615 41.1166 13.6699 40.8705 13.8164C40.6244 13.9629 40.4369 14.1475 40.308 14.3701C40.1791 14.5869 40.1146 14.8418 40.1146 15.1348C40.1146 15.4336 40.182 15.7061 40.3168 15.9521C40.4516 16.1982 40.6537 16.3945 40.9232 16.541C41.1986 16.6816 41.5355 16.752 41.934 16.752C42.432 16.752 42.8715 16.6465 43.2523 16.4355C43.6332 16.2246 43.935 15.9668 44.1576 15.6621C44.3861 15.3574 44.5092 15.0615 44.5268 14.7744L45.2211 15.5566C45.1801 15.8027 45.0687 16.0752 44.8871 16.374C44.7055 16.6729 44.4623 16.96 44.1576 17.2354C43.8588 17.5049 43.5014 17.7305 43.0854 17.9121C42.6752 18.0879 42.2123 18.1758 41.6967 18.1758C41.0521 18.1758 40.4867 18.0498 40.0004 17.7979C39.5199 17.5459 39.1449 17.209 38.8754 16.7871C38.6117 16.3594 38.4799 15.8818 38.4799 15.3545C38.4799 14.8447 38.5795 14.3965 38.7787 14.0098C38.9779 13.6172 39.265 13.292 39.64 13.0342C40.015 12.7705 40.4662 12.5713 40.9936 12.4365C41.5209 12.3018 42.1098 12.2344 42.7602 12.2344H44.6498ZM54.6963 16.1543V4.5H56.3311V18H54.8369L54.6963 16.1543ZM48.2979 13.3506V13.166C48.2979 12.4395 48.3857 11.7803 48.5615 11.1885C48.7432 10.5908 48.998 10.0781 49.3262 9.65039C49.6602 9.22266 50.0557 8.89453 50.5127 8.66602C50.9756 8.43164 51.4912 8.31445 52.0596 8.31445C52.6572 8.31445 53.1787 8.41992 53.624 8.63086C54.0752 8.83594 54.4561 9.1377 54.7666 9.53613C55.083 9.92871 55.332 10.4033 55.5137 10.96C55.6953 11.5166 55.8213 12.1465 55.8916 12.8496V13.6582C55.8271 14.3555 55.7012 14.9824 55.5137 15.5391C55.332 16.0957 55.083 16.5703 54.7666 16.9629C54.4561 17.3555 54.0752 17.6572 53.624 17.8682C53.1729 18.0732 52.6455 18.1758 52.042 18.1758C51.4854 18.1758 50.9756 18.0557 50.5127 17.8154C50.0557 17.5752 49.6602 17.2383 49.3262 16.8047C48.998 16.3711 48.7432 15.8613 48.5615 15.2754C48.3857 14.6836 48.2979 14.042 48.2979 13.3506ZM49.9326 13.166V13.3506C49.9326 13.8252 49.9795 14.2705 50.0732 14.6865C50.1729 15.1025 50.3252 15.4688 50.5303 15.7852C50.7354 16.1016 50.9961 16.3506 51.3125 16.5322C51.6289 16.708 52.0068 16.7959 52.4463 16.7959C52.9854 16.7959 53.4277 16.6816 53.7734 16.4531C54.125 16.2246 54.4062 15.9229 54.6172 15.5479C54.8281 15.1729 54.9922 14.7656 55.1094 14.3262V12.208C55.0391 11.8857 54.9365 11.5752 54.8018 11.2764C54.6729 10.9717 54.5029 10.7021 54.292 10.4678C54.0869 10.2275 53.832 10.0371 53.5273 9.89648C53.2285 9.75586 52.874 9.68555 52.4639 9.68555C52.0186 9.68555 51.6348 9.7793 51.3125 9.9668C50.9961 10.1484 50.7354 10.4004 50.5303 10.7227C50.3252 11.0391 50.1729 11.4082 50.0732 11.8301C49.9795 12.2461 49.9326 12.6914 49.9326 13.166ZM69.2346 16.374V11.4785C69.2346 11.1035 69.1584 10.7783 69.0061 10.5029C68.8596 10.2217 68.6369 10.0049 68.3381 9.85254C68.0393 9.7002 67.6701 9.62402 67.2307 9.62402C66.8205 9.62402 66.4602 9.69434 66.1496 9.83496C65.8449 9.97559 65.6047 10.1602 65.4289 10.3887C65.259 10.6172 65.174 10.8633 65.174 11.127H63.548C63.548 10.7871 63.6359 10.4502 63.8117 10.1162C63.9875 9.78223 64.2395 9.48047 64.5676 9.21094C64.9016 8.93555 65.3 8.71875 65.7629 8.56055C66.2316 8.39648 66.7531 8.31445 67.3273 8.31445C68.0187 8.31445 68.6281 8.43164 69.1555 8.66602C69.6887 8.90039 70.1047 9.25488 70.4035 9.72949C70.7082 10.1982 70.8605 10.7871 70.8605 11.4961V15.9258C70.8605 16.2422 70.8869 16.5791 70.9396 16.9365C70.9982 17.2939 71.0832 17.6016 71.1945 17.8594V18H69.4982C69.4162 17.8125 69.3518 17.5635 69.3049 17.2529C69.258 16.9365 69.2346 16.6436 69.2346 16.374ZM69.5158 12.2344L69.5334 13.377H67.8898C67.427 13.377 67.0139 13.415 66.6506 13.4912C66.2873 13.5615 65.9826 13.6699 65.7365 13.8164C65.4904 13.9629 65.3029 14.1475 65.174 14.3701C65.0451 14.5869 64.9807 14.8418 64.9807 15.1348C64.9807 15.4336 65.048 15.7061 65.1828 15.9521C65.3176 16.1982 65.5197 16.3945 65.7893 16.541C66.0646 16.6816 66.4016 16.752 66.8 16.752C67.298 16.752 67.7375 16.6465 68.1184 16.4355C68.4992 16.2246 68.801 15.9668 69.0236 15.6621C69.2521 15.3574 69.3752 15.0615 69.3928 14.7744L70.0871 15.5566C70.0461 15.8027 69.9348 16.0752 69.7531 16.374C69.5715 16.6729 69.3283 16.96 69.0236 17.2354C68.7248 17.5049 68.3674 17.7305 67.9514 17.9121C67.5412 18.0879 67.0783 18.1758 66.5627 18.1758C65.9182 18.1758 65.3527 18.0498 64.8664 17.7979C64.3859 17.5459 64.0109 17.209 63.7414 16.7871C63.4777 16.3594 63.3459 15.8818 63.3459 15.3545C63.3459 14.8447 63.4455 14.3965 63.6447 14.0098C63.8439 13.6172 64.1311 13.292 64.5061 13.0342C64.8811 12.7705 65.3322 12.5713 65.8596 12.4365C66.3869 12.3018 66.9758 12.2344 67.6262 12.2344H69.5158ZM81.9887 16.8398C82.3754 16.8398 82.7328 16.7607 83.0609 16.6025C83.3891 16.4443 83.6586 16.2275 83.8695 15.9521C84.0805 15.6709 84.2006 15.3516 84.2299 14.9941H85.7768C85.7475 15.5566 85.557 16.0811 85.2055 16.5674C84.8598 17.0479 84.4057 17.4375 83.8432 17.7363C83.2807 18.0293 82.6625 18.1758 81.9887 18.1758C81.2738 18.1758 80.6498 18.0498 80.1166 17.7979C79.5893 17.5459 79.1498 17.2002 78.7982 16.7607C78.4525 16.3213 78.1918 15.8174 78.016 15.249C77.8461 14.6748 77.7611 14.0684 77.7611 13.4297V13.0605C77.7611 12.4219 77.8461 11.8184 78.016 11.25C78.1918 10.6758 78.4525 10.1689 78.7982 9.72949C79.1498 9.29004 79.5893 8.94434 80.1166 8.69238C80.6498 8.44043 81.2738 8.31445 81.9887 8.31445C82.7328 8.31445 83.3832 8.4668 83.9398 8.77148C84.4965 9.07031 84.933 9.48047 85.2494 10.002C85.5717 10.5176 85.7475 11.1035 85.7768 11.7598H84.2299C84.2006 11.3672 84.0893 11.0127 83.8959 10.6963C83.7084 10.3799 83.4506 10.1279 83.1225 9.94043C82.8002 9.74707 82.4223 9.65039 81.9887 9.65039C81.4906 9.65039 81.0717 9.75 80.7318 9.94922C80.3979 10.1426 80.1312 10.4062 79.932 10.7402C79.7387 11.0684 79.598 11.4346 79.5102 11.8389C79.4281 12.2373 79.3871 12.6445 79.3871 13.0605V13.4297C79.3871 13.8457 79.4281 14.2559 79.5102 14.6602C79.5922 15.0645 79.7299 15.4307 79.9232 15.7588C80.1225 16.0869 80.3891 16.3506 80.723 16.5498C81.0629 16.7432 81.4848 16.8398 81.9887 16.8398ZM87.3242 13.3506V13.1484C87.3242 12.4629 87.4238 11.8271 87.623 11.2412C87.8223 10.6494 88.1094 10.1367 88.4844 9.70312C88.8594 9.26367 89.3135 8.92383 89.8467 8.68359C90.3799 8.4375 90.9775 8.31445 91.6396 8.31445C92.3076 8.31445 92.9082 8.4375 93.4414 8.68359C93.9805 8.92383 94.4375 9.26367 94.8125 9.70312C95.1934 10.1367 95.4834 10.6494 95.6826 11.2412C95.8818 11.8271 95.9814 12.4629 95.9814 13.1484V13.3506C95.9814 14.0361 95.8818 14.6719 95.6826 15.2578C95.4834 15.8438 95.1934 16.3564 94.8125 16.7959C94.4375 17.2295 93.9834 17.5693 93.4502 17.8154C92.9229 18.0557 92.3252 18.1758 91.6572 18.1758C90.9893 18.1758 90.3887 18.0557 89.8555 17.8154C89.3223 17.5693 88.8652 17.2295 88.4844 16.7959C88.1094 16.3564 87.8223 15.8438 87.623 15.2578C87.4238 14.6719 87.3242 14.0361 87.3242 13.3506ZM88.9502 13.1484V13.3506C88.9502 13.8252 89.0059 14.2734 89.1172 14.6953C89.2285 15.1113 89.3955 15.4805 89.6182 15.8027C89.8467 16.125 90.1309 16.3799 90.4707 16.5674C90.8105 16.749 91.2061 16.8398 91.6572 16.8398C92.1025 16.8398 92.4922 16.749 92.8262 16.5674C93.166 16.3799 93.4473 16.125 93.6699 15.8027C93.8926 15.4805 94.0596 15.1113 94.1709 14.6953C94.2881 14.2734 94.3467 13.8252 94.3467 13.3506V13.1484C94.3467 12.6797 94.2881 12.2373 94.1709 11.8213C94.0596 11.3994 93.8896 11.0273 93.6611 10.7051C93.4385 10.377 93.1572 10.1191 92.8174 9.93164C92.4834 9.74414 92.0908 9.65039 91.6396 9.65039C91.1943 9.65039 90.8018 9.74414 90.4619 9.93164C90.1279 10.1191 89.8467 10.377 89.6182 10.7051C89.3955 11.0273 89.2285 11.3994 89.1172 11.8213C89.0059 12.2373 88.9502 12.6797 88.9502 13.1484ZM99.7965 10.3184V21.6562H98.1617V8.49023H99.6559L99.7965 10.3184ZM106.204 13.166V13.3506C106.204 14.042 106.122 14.6836 105.958 15.2754C105.794 15.8613 105.553 16.3711 105.237 16.8047C104.926 17.2383 104.543 17.5752 104.086 17.8154C103.629 18.0557 103.104 18.1758 102.512 18.1758C101.909 18.1758 101.376 18.0762 100.913 17.877C100.45 17.6777 100.057 17.3877 99.735 17.0068C99.4127 16.626 99.1549 16.1689 98.9615 15.6357C98.774 15.1025 98.6451 14.502 98.5748 13.834V12.8496C98.6451 12.1465 98.777 11.5166 98.9703 10.96C99.1637 10.4033 99.4186 9.92871 99.735 9.53613C100.057 9.1377 100.447 8.83594 100.904 8.63086C101.361 8.41992 101.888 8.31445 102.486 8.31445C103.084 8.31445 103.614 8.43164 104.077 8.66602C104.54 8.89453 104.929 9.22266 105.246 9.65039C105.562 10.0781 105.799 10.5908 105.958 11.1885C106.122 11.7803 106.204 12.4395 106.204 13.166ZM104.569 13.3506V13.166C104.569 12.6914 104.519 12.2461 104.42 11.8301C104.32 11.4082 104.165 11.0391 103.954 10.7227C103.749 10.4004 103.485 10.1484 103.163 9.9668C102.84 9.7793 102.457 9.68555 102.011 9.68555C101.601 9.68555 101.244 9.75586 100.939 9.89648C100.64 10.0371 100.385 10.2275 100.174 10.4678C99.9635 10.7021 99.7906 10.9717 99.6559 11.2764C99.527 11.5752 99.4303 11.8857 99.3658 12.208V14.4844C99.483 14.8945 99.6471 15.2812 99.858 15.6445C100.069 16.002 100.35 16.292 100.702 16.5146C101.053 16.7314 101.496 16.8398 102.029 16.8398C102.468 16.8398 102.846 16.749 103.163 16.5674C103.485 16.3799 103.749 16.125 103.954 15.8027C104.165 15.4805 104.32 15.1113 104.42 14.6953C104.519 14.2734 104.569 13.8252 104.569 13.3506ZM110.994 17.0156L113.64 8.49023H115.38L111.566 19.4678C111.478 19.7021 111.361 19.9541 111.214 20.2236C111.073 20.499 110.892 20.7598 110.669 21.0059C110.446 21.252 110.177 21.4512 109.861 21.6035C109.55 21.7617 109.178 21.8408 108.744 21.8408C108.615 21.8408 108.451 21.8232 108.252 21.7881C108.053 21.7529 107.912 21.7236 107.83 21.7002L107.821 20.3818C107.868 20.3877 107.942 20.3936 108.041 20.3994C108.147 20.4111 108.22 20.417 108.261 20.417C108.63 20.417 108.944 20.3672 109.201 20.2676C109.459 20.1738 109.676 20.0127 109.852 19.7842C110.033 19.5615 110.189 19.2539 110.318 18.8613L110.994 17.0156ZM109.052 8.49023L111.522 15.873L111.944 17.5869L110.775 18.1846L107.277 8.49023H109.052Z" fill="#001E2F"/>
<path d="M145.207 2.29289C144.817 1.90237 144.183 1.90237 143.793 2.29289L138.793 7.29289C138.402 7.68342 138.402 8.31658 138.793 8.70711C139.183 9.09763 139.817 9.09763 140.207 8.70711L143.5 5.41421V15.0714C143.5 15.6237 143.948 16.0714 144.5 16.0714C145.052 16.0714 145.5 15.6237 145.5 15.0714V5.41421L148.793 8.70711C149.183 9.09763 149.817 9.09763 150.207 8.70711C150.598 8.31658 150.598 7.68342 150.207 7.29289L145.207 2.29289Z" fill="#001E2F"/>
<path d="M136.5 15C136.5 14.4477 136.052 14 135.5 14C134.948 14 134.5 14.4477 134.5 15V19C134.5 19.7957 134.816 20.5587 135.379 21.1213C135.941 21.6839 136.704 22 137.5 22H151.5C152.296 22 153.059 21.6839 153.621 21.1213C154.184 20.5587 154.5 19.7957 154.5 19V15C154.5 14.4477 154.052 14 153.5 14C152.948 14 152.5 14.4477 152.5 15V19C152.5 19.2652 152.395 19.5196 152.207 19.7071C152.02 19.8946 151.765 20 151.5 20H137.5C137.235 20 136.98 19.8946 136.793 19.7071C136.605 19.5196 136.5 19.2652 136.5 19V15Z" fill="#001E2F"/>
</svg>
