<svg width="1064" height="154" viewBox="0 0 1064 154" fill="none" xmlns="http://www.w3.org/2000/svg">
<rect x="2" y="2" width="1060" height="150" rx="20" fill="black" fill-opacity="0.02"/>
<rect x="1.25" y="1.25" width="1061.5" height="151.5" rx="20.75" stroke="black" stroke-opacity="0.42" stroke-width="1.5" stroke-dasharray="10 10"/>
<path d="M424.242 39.9375H426.492V51.4805C426.492 52.7617 426.207 53.8281 425.637 54.6797C425.066 55.5312 424.309 56.1719 423.363 56.6016C422.426 57.0234 421.406 57.2344 420.305 57.2344C419.148 57.2344 418.102 57.0234 417.164 56.6016C416.234 56.1719 415.496 55.5312 414.949 54.6797C414.41 53.8281 414.141 52.7617 414.141 51.4805V39.9375H416.379V51.4805C416.379 52.3711 416.543 53.1055 416.871 53.6836C417.199 54.2617 417.656 54.6914 418.242 54.9727C418.836 55.2539 419.523 55.3945 420.305 55.3945C421.094 55.3945 421.781 55.2539 422.367 54.9727C422.961 54.6914 423.422 54.2617 423.75 53.6836C424.078 53.1055 424.242 52.3711 424.242 51.4805V39.9375ZM432.033 46.7578V61.875H429.853V44.3203H431.845L432.033 46.7578ZM440.576 50.5547V50.8008C440.576 51.7227 440.466 52.5781 440.248 53.3672C440.029 54.1484 439.709 54.8281 439.287 55.4062C438.873 55.9844 438.361 56.4336 437.752 56.7539C437.142 57.0742 436.443 57.2344 435.654 57.2344C434.849 57.2344 434.138 57.1016 433.521 56.8359C432.904 56.5703 432.38 56.1836 431.951 55.6758C431.521 55.168 431.177 54.5586 430.92 53.8477C430.67 53.1367 430.498 52.3359 430.404 51.4453V50.1328C430.498 49.1953 430.673 48.3555 430.931 47.6133C431.189 46.8711 431.529 46.2383 431.951 45.7148C432.38 45.1836 432.9 44.7812 433.509 44.5078C434.119 44.2266 434.822 44.0859 435.619 44.0859C436.416 44.0859 437.123 44.2422 437.74 44.5547C438.357 44.8594 438.877 45.2969 439.298 45.8672C439.72 46.4375 440.037 47.1211 440.248 47.918C440.466 48.707 440.576 49.5859 440.576 50.5547ZM438.396 50.8008V50.5547C438.396 49.9219 438.33 49.3281 438.197 48.7734C438.064 48.2109 437.857 47.7188 437.576 47.2969C437.302 46.8672 436.951 46.5312 436.521 46.2891C436.091 46.0391 435.58 45.9141 434.986 45.9141C434.439 45.9141 433.962 46.0078 433.556 46.1953C433.158 46.3828 432.818 46.6367 432.537 46.957C432.255 47.2695 432.025 47.6289 431.845 48.0352C431.673 48.4336 431.545 48.8477 431.459 49.2773V52.3125C431.615 52.8594 431.834 53.375 432.115 53.8594C432.396 54.3359 432.771 54.7227 433.24 55.0195C433.709 55.3086 434.298 55.4531 435.009 55.4531C435.595 55.4531 436.099 55.332 436.521 55.0898C436.951 54.8398 437.302 54.5 437.576 54.0703C437.857 53.6406 438.064 53.1484 438.197 52.5938C438.33 52.0312 438.396 51.4336 438.396 50.8008ZM445.847 39V57H443.667V39H445.847ZM448.903 50.8008V50.5312C448.903 49.6172 449.036 48.7695 449.302 47.9883C449.567 47.1992 449.95 46.5156 450.45 45.9375C450.95 45.3516 451.555 44.8984 452.266 44.5781C452.977 44.25 453.774 44.0859 454.657 44.0859C455.548 44.0859 456.348 44.25 457.059 44.5781C457.778 44.8984 458.388 45.3516 458.888 45.9375C459.395 46.5156 459.782 47.1992 460.048 47.9883C460.313 48.7695 460.446 49.6172 460.446 50.5312V50.8008C460.446 51.7148 460.313 52.5625 460.048 53.3438C459.782 54.125 459.395 54.8086 458.888 55.3945C458.388 55.9727 457.782 56.4258 457.071 56.7539C456.368 57.0742 455.571 57.2344 454.68 57.2344C453.79 57.2344 452.989 57.0742 452.278 56.7539C451.567 56.4258 450.958 55.9727 450.45 55.3945C449.95 54.8086 449.567 54.125 449.302 53.3438C449.036 52.5625 448.903 51.7148 448.903 50.8008ZM451.071 50.5312V50.8008C451.071 51.4336 451.145 52.0312 451.294 52.5938C451.442 53.1484 451.665 53.6406 451.962 54.0703C452.266 54.5 452.645 54.8398 453.098 55.0898C453.552 55.332 454.079 55.4531 454.68 55.4531C455.274 55.4531 455.794 55.332 456.239 55.0898C456.692 54.8398 457.067 54.5 457.364 54.0703C457.661 53.6406 457.884 53.1484 458.032 52.5938C458.188 52.0312 458.266 51.4336 458.266 50.8008V50.5312C458.266 49.9062 458.188 49.3164 458.032 48.7617C457.884 48.1992 457.657 47.7031 457.352 47.2734C457.055 46.8359 456.68 46.4922 456.227 46.2422C455.782 45.9922 455.259 45.8672 454.657 45.8672C454.063 45.8672 453.54 45.9922 453.087 46.2422C452.641 46.4922 452.266 46.8359 451.962 47.2734C451.665 47.7031 451.442 48.1992 451.294 48.7617C451.145 49.3164 451.071 49.9062 451.071 50.5312ZM470.791 54.832V48.3047C470.791 47.8047 470.69 47.3711 470.487 47.0039C470.291 46.6289 469.995 46.3398 469.596 46.1367C469.198 45.9336 468.705 45.832 468.12 45.832C467.573 45.832 467.092 45.9258 466.678 46.1133C466.272 46.3008 465.952 46.5469 465.717 46.8516C465.491 47.1562 465.377 47.4844 465.377 47.8359H463.209C463.209 47.3828 463.327 46.9336 463.561 46.4883C463.795 46.043 464.131 45.6406 464.569 45.2812C465.014 44.9141 465.545 44.625 466.162 44.4141C466.787 44.1953 467.483 44.0859 468.248 44.0859C469.17 44.0859 469.983 44.2422 470.686 44.5547C471.397 44.8672 471.952 45.3398 472.35 45.9727C472.756 46.5977 472.959 47.3828 472.959 48.3281V54.2344C472.959 54.6562 472.995 55.1055 473.065 55.582C473.143 56.0586 473.256 56.4688 473.405 56.8125V57H471.143C471.034 56.75 470.948 56.418 470.885 56.0039C470.823 55.582 470.791 55.1914 470.791 54.832ZM471.166 49.3125L471.19 50.8359H468.998C468.381 50.8359 467.83 50.8867 467.346 50.9883C466.862 51.082 466.455 51.2266 466.127 51.4219C465.799 51.6172 465.549 51.8633 465.377 52.1602C465.205 52.4492 465.12 52.7891 465.12 53.1797C465.12 53.5781 465.209 53.9414 465.389 54.2695C465.569 54.5977 465.838 54.8594 466.198 55.0547C466.565 55.2422 467.014 55.3359 467.545 55.3359C468.209 55.3359 468.795 55.1953 469.303 54.9141C469.811 54.6328 470.213 54.2891 470.51 53.8828C470.815 53.4766 470.979 53.082 471.002 52.6992L471.928 53.7422C471.873 54.0703 471.725 54.4336 471.483 54.832C471.241 55.2305 470.916 55.6133 470.51 55.9805C470.112 56.3398 469.635 56.6406 469.08 56.8828C468.534 57.1172 467.916 57.2344 467.229 57.2344C466.37 57.2344 465.616 57.0664 464.967 56.7305C464.327 56.3945 463.827 55.9453 463.467 55.3828C463.116 54.8125 462.94 54.1758 462.94 53.4727C462.94 52.793 463.073 52.1953 463.338 51.6797C463.604 51.1562 463.987 50.7227 464.487 50.3789C464.987 50.0273 465.588 49.7617 466.291 49.582C466.995 49.4023 467.78 49.3125 468.647 49.3125H471.166ZM484.512 54.5391V39H486.691V57H484.699L484.512 54.5391ZM475.98 50.8008V50.5547C475.98 49.5859 476.098 48.707 476.332 47.918C476.574 47.1211 476.914 46.4375 477.352 45.8672C477.797 45.2969 478.324 44.8594 478.934 44.5547C479.551 44.2422 480.238 44.0859 480.996 44.0859C481.793 44.0859 482.488 44.2266 483.082 44.5078C483.684 44.7812 484.191 45.1836 484.605 45.7148C485.027 46.2383 485.359 46.8711 485.602 47.6133C485.844 48.3555 486.012 49.1953 486.105 50.1328V51.2109C486.02 52.1406 485.852 52.9766 485.602 53.7188C485.359 54.4609 485.027 55.0938 484.605 55.6172C484.191 56.1406 483.684 56.543 483.082 56.8242C482.48 57.0977 481.777 57.2344 480.973 57.2344C480.23 57.2344 479.551 57.0742 478.934 56.7539C478.324 56.4336 477.797 55.9844 477.352 55.4062C476.914 54.8281 476.574 54.1484 476.332 53.3672C476.098 52.5781 475.98 51.7227 475.98 50.8008ZM478.16 50.5547V50.8008C478.16 51.4336 478.223 52.0273 478.348 52.582C478.48 53.1367 478.684 53.625 478.957 54.0469C479.23 54.4688 479.578 54.8008 480 55.043C480.422 55.2773 480.926 55.3945 481.512 55.3945C482.23 55.3945 482.82 55.2422 483.281 54.9375C483.75 54.6328 484.125 54.2305 484.406 53.7305C484.688 53.2305 484.906 52.6875 485.062 52.1016V49.2773C484.969 48.8477 484.832 48.4336 484.652 48.0352C484.48 47.6289 484.254 47.2695 483.973 46.957C483.699 46.6367 483.359 46.3828 482.953 46.1953C482.555 46.0078 482.082 45.9141 481.535 45.9141C480.941 45.9141 480.43 46.0391 480 46.2891C479.578 46.5312 479.23 46.8672 478.957 47.2969C478.684 47.7188 478.48 48.2109 478.348 48.7734C478.223 49.3281 478.16 49.9219 478.16 50.5547ZM503.796 54.832V48.3047C503.796 47.8047 503.695 47.3711 503.491 47.0039C503.296 46.6289 502.999 46.3398 502.601 46.1367C502.202 45.9336 501.71 45.832 501.124 45.832C500.577 45.832 500.097 45.9258 499.683 46.1133C499.277 46.3008 498.956 46.5469 498.722 46.8516C498.495 47.1562 498.382 47.4844 498.382 47.8359H496.214C496.214 47.3828 496.331 46.9336 496.566 46.4883C496.8 46.043 497.136 45.6406 497.573 45.2812C498.019 44.9141 498.55 44.625 499.167 44.4141C499.792 44.1953 500.488 44.0859 501.253 44.0859C502.175 44.0859 502.988 44.2422 503.691 44.5547C504.402 44.8672 504.956 45.3398 505.355 45.9727C505.761 46.5977 505.964 47.3828 505.964 48.3281V54.2344C505.964 54.6562 505.999 55.1055 506.07 55.582C506.148 56.0586 506.261 56.4688 506.409 56.8125V57H504.148C504.038 56.75 503.952 56.418 503.89 56.0039C503.827 55.582 503.796 55.1914 503.796 54.832ZM504.171 49.3125L504.195 50.8359H502.003C501.386 50.8359 500.835 50.8867 500.351 50.9883C499.866 51.082 499.46 51.2266 499.132 51.4219C498.804 51.6172 498.554 51.8633 498.382 52.1602C498.21 52.4492 498.124 52.7891 498.124 53.1797C498.124 53.5781 498.214 53.9414 498.394 54.2695C498.573 54.5977 498.843 54.8594 499.202 55.0547C499.57 55.2422 500.019 55.3359 500.55 55.3359C501.214 55.3359 501.8 55.1953 502.308 54.9141C502.816 54.6328 503.218 54.2891 503.515 53.8828C503.82 53.4766 503.984 53.082 504.007 52.6992L504.933 53.7422C504.878 54.0703 504.73 54.4336 504.488 54.832C504.245 55.2305 503.921 55.6133 503.515 55.9805C503.116 56.3398 502.64 56.6406 502.085 56.8828C501.538 57.1172 500.921 57.2344 500.234 57.2344C499.374 57.2344 498.62 57.0664 497.972 56.7305C497.331 56.3945 496.831 55.9453 496.472 55.3828C496.12 54.8125 495.945 54.1758 495.945 53.4727C495.945 52.793 496.077 52.1953 496.343 51.6797C496.609 51.1562 496.991 50.7227 497.491 50.3789C497.991 50.0273 498.593 49.7617 499.296 49.582C499.999 49.4023 500.784 49.3125 501.652 49.3125H504.171ZM511.692 47.0273V57H509.524V44.3203H511.575L511.692 47.0273ZM511.177 50.1797L510.274 50.1445C510.282 49.2773 510.411 48.4766 510.661 47.7422C510.911 47 511.262 46.3555 511.716 45.8086C512.169 45.2617 512.708 44.8398 513.333 44.543C513.966 44.2383 514.665 44.0859 515.43 44.0859C516.055 44.0859 516.618 44.1719 517.118 44.3438C517.618 44.5078 518.044 44.7734 518.395 45.1406C518.755 45.5078 519.028 45.9844 519.216 46.5703C519.403 47.1484 519.497 47.8555 519.497 48.6914V57H517.317V48.668C517.317 48.0039 517.22 47.4727 517.024 47.0742C516.829 46.668 516.544 46.375 516.169 46.1953C515.794 46.0078 515.333 45.9141 514.786 45.9141C514.247 45.9141 513.755 46.0273 513.309 46.2539C512.872 46.4805 512.493 46.793 512.173 47.1914C511.86 47.5898 511.614 48.0469 511.434 48.5625C511.262 49.0703 511.177 49.6094 511.177 50.1797ZM536.52 54.832V48.3047C536.52 47.8047 536.418 47.3711 536.215 47.0039C536.02 46.6289 535.723 46.3398 535.324 46.1367C534.926 45.9336 534.434 45.832 533.848 45.832C533.301 45.832 532.82 45.9258 532.406 46.1133C532 46.3008 531.68 46.5469 531.445 46.8516C531.219 47.1562 531.105 47.4844 531.105 47.8359H528.938C528.938 47.3828 529.055 46.9336 529.289 46.4883C529.523 46.043 529.859 45.6406 530.297 45.2812C530.742 44.9141 531.273 44.625 531.891 44.4141C532.516 44.1953 533.211 44.0859 533.977 44.0859C534.898 44.0859 535.711 44.2422 536.414 44.5547C537.125 44.8672 537.68 45.3398 538.078 45.9727C538.484 46.5977 538.688 47.3828 538.688 48.3281V54.2344C538.688 54.6562 538.723 55.1055 538.793 55.582C538.871 56.0586 538.984 56.4688 539.133 56.8125V57H536.871C536.762 56.75 536.676 56.418 536.613 56.0039C536.551 55.582 536.52 55.1914 536.52 54.832ZM536.895 49.3125L536.918 50.8359H534.727C534.109 50.8359 533.559 50.8867 533.074 50.9883C532.59 51.082 532.184 51.2266 531.855 51.4219C531.527 51.6172 531.277 51.8633 531.105 52.1602C530.934 52.4492 530.848 52.7891 530.848 53.1797C530.848 53.5781 530.938 53.9414 531.117 54.2695C531.297 54.5977 531.566 54.8594 531.926 55.0547C532.293 55.2422 532.742 55.3359 533.273 55.3359C533.938 55.3359 534.523 55.1953 535.031 54.9141C535.539 54.6328 535.941 54.2891 536.238 53.8828C536.543 53.4766 536.707 53.082 536.73 52.6992L537.656 53.7422C537.602 54.0703 537.453 54.4336 537.211 54.832C536.969 55.2305 536.645 55.6133 536.238 55.9805C535.84 56.3398 535.363 56.6406 534.809 56.8828C534.262 57.1172 533.645 57.2344 532.957 57.2344C532.098 57.2344 531.344 57.0664 530.695 56.7305C530.055 56.3945 529.555 55.9453 529.195 55.3828C528.844 54.8125 528.668 54.1758 528.668 53.4727C528.668 52.793 528.801 52.1953 529.066 51.6797C529.332 51.1562 529.715 50.7227 530.215 50.3789C530.715 50.0273 531.316 49.7617 532.02 49.582C532.723 49.4023 533.508 49.3125 534.375 49.3125H536.895ZM547.556 44.3203V45.9844H540.701V44.3203H547.556ZM543.021 41.2383H545.189V53.8594C545.189 54.2891 545.255 54.6133 545.388 54.832C545.521 55.0508 545.693 55.1953 545.904 55.2656C546.115 55.3359 546.341 55.3711 546.584 55.3711C546.763 55.3711 546.951 55.3555 547.146 55.3242C547.349 55.2852 547.502 55.2539 547.603 55.2305L547.615 57C547.443 57.0547 547.216 57.1055 546.935 57.1523C546.662 57.207 546.33 57.2344 545.939 57.2344C545.408 57.2344 544.92 57.1289 544.474 56.918C544.029 56.707 543.673 56.3555 543.408 55.8633C543.15 55.3633 543.021 54.6914 543.021 53.8477V41.2383ZM555.558 44.3203V45.9844H548.702V44.3203H555.558ZM551.023 41.2383H553.191V53.8594C553.191 54.2891 553.257 54.6133 553.39 54.832C553.523 55.0508 553.695 55.1953 553.905 55.2656C554.116 55.3359 554.343 55.3711 554.585 55.3711C554.765 55.3711 554.952 55.3555 555.148 55.3242C555.351 55.2852 555.503 55.2539 555.605 55.2305L555.616 57C555.445 57.0547 555.218 57.1055 554.937 57.1523C554.663 57.207 554.331 57.2344 553.941 57.2344C553.409 57.2344 552.921 57.1289 552.476 56.918C552.03 56.707 551.675 56.3555 551.409 55.8633C551.152 55.3633 551.023 54.6914 551.023 53.8477V41.2383ZM565.727 54.832V48.3047C565.727 47.8047 565.626 47.3711 565.423 47.0039C565.227 46.6289 564.93 46.3398 564.532 46.1367C564.134 45.9336 563.641 45.832 563.055 45.832C562.509 45.832 562.028 45.9258 561.614 46.1133C561.208 46.3008 560.887 46.5469 560.653 46.8516C560.427 47.1562 560.313 47.4844 560.313 47.8359H558.145C558.145 47.3828 558.262 46.9336 558.497 46.4883C558.731 46.043 559.067 45.6406 559.505 45.2812C559.95 44.9141 560.481 44.625 561.098 44.4141C561.723 44.1953 562.419 44.0859 563.184 44.0859C564.106 44.0859 564.919 44.2422 565.622 44.5547C566.333 44.8672 566.887 45.3398 567.286 45.9727C567.692 46.5977 567.895 47.3828 567.895 48.3281V54.2344C567.895 54.6562 567.93 55.1055 568.001 55.582C568.079 56.0586 568.192 56.4688 568.341 56.8125V57H566.079C565.97 56.75 565.884 56.418 565.821 56.0039C565.759 55.582 565.727 55.1914 565.727 54.832ZM566.102 49.3125L566.126 50.8359H563.934C563.317 50.8359 562.766 50.8867 562.282 50.9883C561.798 51.082 561.391 51.2266 561.063 51.4219C560.735 51.6172 560.485 51.8633 560.313 52.1602C560.141 52.4492 560.055 52.7891 560.055 53.1797C560.055 53.5781 560.145 53.9414 560.325 54.2695C560.505 54.5977 560.774 54.8594 561.134 55.0547C561.501 55.2422 561.95 55.3359 562.481 55.3359C563.145 55.3359 563.731 55.1953 564.239 54.9141C564.747 54.6328 565.149 54.2891 565.446 53.8828C565.751 53.4766 565.915 53.082 565.938 52.6992L566.864 53.7422C566.809 54.0703 566.661 54.4336 566.419 54.832C566.177 55.2305 565.852 55.6133 565.446 55.9805C565.048 56.3398 564.571 56.6406 564.016 56.8828C563.47 57.1172 562.852 57.2344 562.165 57.2344C561.305 57.2344 560.552 57.0664 559.903 56.7305C559.262 56.3945 558.762 55.9453 558.403 55.3828C558.052 54.8125 557.876 54.1758 557.876 53.4727C557.876 52.793 558.009 52.1953 558.274 51.6797C558.54 51.1562 558.923 50.7227 559.423 50.3789C559.923 50.0273 560.524 49.7617 561.227 49.582C561.93 49.4023 562.716 49.3125 563.583 49.3125H566.102ZM576.53 55.4531C577.045 55.4531 577.522 55.3477 577.959 55.1367C578.397 54.9258 578.756 54.6367 579.038 54.2695C579.319 53.8945 579.479 53.4688 579.518 52.9922H581.58C581.541 53.7422 581.288 54.4414 580.819 55.0898C580.358 55.7305 579.752 56.25 579.002 56.6484C578.252 57.0391 577.428 57.2344 576.53 57.2344C575.577 57.2344 574.745 57.0664 574.034 56.7305C573.33 56.3945 572.745 55.9336 572.276 55.3477C571.815 54.7617 571.467 54.0898 571.233 53.332C571.006 52.5664 570.893 51.7578 570.893 50.9062V50.4141C570.893 49.5625 571.006 48.7578 571.233 48C571.467 47.2344 571.815 46.5586 572.276 45.9727C572.745 45.3867 573.33 44.9258 574.034 44.5898C574.745 44.2539 575.577 44.0859 576.53 44.0859C577.522 44.0859 578.389 44.2891 579.131 44.6953C579.873 45.0938 580.455 45.6406 580.877 46.3359C581.307 47.0234 581.541 47.8047 581.58 48.6797H579.518C579.479 48.1562 579.33 47.6836 579.073 47.2617C578.823 46.8398 578.479 46.5039 578.041 46.2539C577.612 45.9961 577.108 45.8672 576.53 45.8672C575.866 45.8672 575.307 46 574.854 46.2656C574.409 46.5234 574.053 46.875 573.788 47.3203C573.53 47.7578 573.342 48.2461 573.225 48.7852C573.116 49.3164 573.061 49.8594 573.061 50.4141V50.9062C573.061 51.4609 573.116 52.0078 573.225 52.5469C573.334 53.0859 573.518 53.5742 573.776 54.0117C574.041 54.4492 574.397 54.8008 574.842 55.0664C575.295 55.3242 575.858 55.4531 576.53 55.4531ZM586.336 39V57H584.168V39H586.336ZM585.82 50.1797L584.918 50.1445C584.926 49.2773 585.055 48.4766 585.305 47.7422C585.555 47 585.906 46.3555 586.359 45.8086C586.812 45.2617 587.352 44.8398 587.977 44.543C588.609 44.2383 589.309 44.0859 590.074 44.0859C590.699 44.0859 591.262 44.1719 591.762 44.3438C592.262 44.5078 592.688 44.7734 593.039 45.1406C593.398 45.5078 593.672 45.9844 593.859 46.5703C594.047 47.1484 594.141 47.8555 594.141 48.6914V57H591.961V48.668C591.961 48.0039 591.863 47.4727 591.668 47.0742C591.473 46.668 591.188 46.375 590.812 46.1953C590.438 46.0078 589.977 45.9141 589.43 45.9141C588.891 45.9141 588.398 46.0273 587.953 46.2539C587.516 46.4805 587.137 46.793 586.816 47.1914C586.504 47.5898 586.258 48.0469 586.078 48.5625C585.906 49.0703 585.82 49.6094 585.82 50.1797ZM599.693 46.8398V57H597.513V44.3203H599.576L599.693 46.8398ZM599.248 50.1797L598.24 50.1445C598.248 49.2773 598.361 48.4766 598.58 47.7422C598.798 47 599.123 46.3555 599.552 45.8086C599.982 45.2617 600.517 44.8398 601.158 44.543C601.798 44.2383 602.541 44.0859 603.384 44.0859C603.978 44.0859 604.525 44.1719 605.025 44.3438C605.525 44.5078 605.959 44.7695 606.326 45.1289C606.693 45.4883 606.978 45.9492 607.181 46.5117C607.384 47.0742 607.486 47.7539 607.486 48.5508V57H605.318V48.6562C605.318 47.9922 605.205 47.4609 604.978 47.0625C604.759 46.6641 604.447 46.375 604.041 46.1953C603.634 46.0078 603.158 45.9141 602.611 45.9141C601.97 45.9141 601.435 46.0273 601.005 46.2539C600.576 46.4805 600.232 46.793 599.974 47.1914C599.716 47.5898 599.529 48.0469 599.412 48.5625C599.302 49.0703 599.248 49.6094 599.248 50.1797ZM607.462 48.9844L606.009 49.4297C606.017 48.7344 606.13 48.0664 606.349 47.4258C606.576 46.7852 606.9 46.2148 607.322 45.7148C607.752 45.2148 608.279 44.8203 608.904 44.5312C609.529 44.2344 610.244 44.0859 611.048 44.0859C611.728 44.0859 612.33 44.1758 612.853 44.3555C613.384 44.5352 613.83 44.8125 614.189 45.1875C614.556 45.5547 614.834 46.0273 615.021 46.6055C615.209 47.1836 615.302 47.8711 615.302 48.668V57H613.123V48.6445C613.123 47.9336 613.009 47.3828 612.783 46.9922C612.564 46.5938 612.252 46.3164 611.845 46.1602C611.447 45.9961 610.97 45.9141 610.416 45.9141C609.939 45.9141 609.517 45.9961 609.15 46.1602C608.783 46.3242 608.474 46.5508 608.224 46.8398C607.974 47.1211 607.783 47.4453 607.65 47.8125C607.525 48.1797 607.462 48.5703 607.462 48.9844ZM623.995 57.2344C623.113 57.2344 622.312 57.0859 621.593 56.7891C620.882 56.4844 620.269 56.0586 619.753 55.5117C619.245 54.9648 618.855 54.3164 618.581 53.5664C618.308 52.8164 618.171 51.9961 618.171 51.1055V50.6133C618.171 49.582 618.323 48.6641 618.628 47.8594C618.933 47.0469 619.347 46.3594 619.87 45.7969C620.394 45.2344 620.988 44.8086 621.652 44.5195C622.316 44.2305 623.003 44.0859 623.714 44.0859C624.62 44.0859 625.402 44.2422 626.058 44.5547C626.722 44.8672 627.265 45.3047 627.687 45.8672C628.109 46.4219 628.421 47.0781 628.624 47.8359C628.827 48.5859 628.929 49.4062 628.929 50.2969V51.2695H619.46V49.5H626.761V49.3359C626.73 48.7734 626.613 48.2266 626.409 47.6953C626.214 47.1641 625.902 46.7266 625.472 46.3828C625.042 46.0391 624.456 45.8672 623.714 45.8672C623.222 45.8672 622.769 45.9727 622.355 46.1836C621.941 46.3867 621.585 46.6914 621.288 47.0977C620.991 47.5039 620.761 48 620.597 48.5859C620.433 49.1719 620.351 49.8477 620.351 50.6133V51.1055C620.351 51.707 620.433 52.2734 620.597 52.8047C620.769 53.3281 621.015 53.7891 621.335 54.1875C621.663 54.5859 622.058 54.8984 622.519 55.125C622.988 55.3516 623.519 55.4648 624.113 55.4648C624.878 55.4648 625.527 55.3086 626.058 54.9961C626.589 54.6836 627.054 54.2656 627.452 53.7422L628.765 54.7852C628.491 55.1992 628.144 55.5938 627.722 55.9688C627.3 56.3438 626.78 56.6484 626.163 56.8828C625.554 57.1172 624.831 57.2344 623.995 57.2344ZM633.778 47.0273V57H631.61V44.3203H633.661L633.778 47.0273ZM633.262 50.1797L632.36 50.1445C632.368 49.2773 632.497 48.4766 632.747 47.7422C632.997 47 633.348 46.3555 633.802 45.8086C634.255 45.2617 634.794 44.8398 635.419 44.543C636.052 44.2383 636.751 44.0859 637.516 44.0859C638.141 44.0859 638.704 44.1719 639.204 44.3438C639.704 44.5078 640.13 44.7734 640.481 45.1406C640.841 45.5078 641.114 45.9844 641.302 46.5703C641.489 47.1484 641.583 47.8555 641.583 48.6914V57H639.403V48.668C639.403 48.0039 639.305 47.4727 639.11 47.0742C638.915 46.668 638.63 46.375 638.255 46.1953C637.88 46.0078 637.419 45.9141 636.872 45.9141C636.333 45.9141 635.841 46.0273 635.395 46.2539C634.958 46.4805 634.579 46.793 634.259 47.1914C633.946 47.5898 633.7 48.0469 633.52 48.5625C633.348 49.0703 633.262 49.6094 633.262 50.1797ZM650.334 44.3203V45.9844H643.479V44.3203H650.334ZM645.799 41.2383H647.967V53.8594C647.967 54.2891 648.034 54.6133 648.166 54.832C648.299 55.0508 648.471 55.1953 648.682 55.2656C648.893 55.3359 649.12 55.3711 649.362 55.3711C649.541 55.3711 649.729 55.3555 649.924 55.3242C650.127 55.2852 650.28 55.2539 650.381 55.2305L650.393 57C650.221 57.0547 649.995 57.1055 649.713 57.1523C649.44 57.207 649.108 57.2344 648.717 57.2344C648.186 57.2344 647.698 57.1289 647.252 56.918C646.807 56.707 646.452 56.3555 646.186 55.8633C645.928 55.3633 645.799 54.6914 645.799 53.8477V41.2383Z" fill="black" fill-opacity="0.42"/>
<path d="M533.178 80.8212C532.528 80.1703 531.472 80.1703 530.821 80.8212L522.488 89.1545C521.837 89.8054 521.837 90.8606 522.488 91.5115C523.139 92.1624 524.194 92.1624 524.845 91.5115L530.333 86.0234V102.119C530.333 103.039 531.079 103.785 532 103.785C532.92 103.785 533.667 103.039 533.667 102.119V86.0234L539.155 91.5115C539.806 92.1624 540.861 92.1624 541.512 91.5115C542.163 90.8606 542.163 89.8054 541.512 89.1545L533.178 80.8212Z" fill="black" fill-opacity="0.42"/>
<path d="M518.667 102C518.667 101.079 517.92 100.333 517 100.333C516.079 100.333 515.333 101.079 515.333 102V108.666C515.333 109.992 515.86 111.264 516.798 112.202C517.735 113.14 519.007 113.666 520.333 113.666H543.667C544.993 113.666 546.264 113.14 547.202 112.202C548.14 111.264 548.667 109.992 548.667 108.666V102C548.667 101.079 547.92 100.333 547 100.333C546.079 100.333 545.333 101.079 545.333 102V108.666C545.333 109.108 545.158 109.532 544.845 109.845C544.533 110.157 544.109 110.333 543.667 110.333H520.333C519.891 110.333 519.467 110.157 519.155 109.845C518.842 109.532 518.667 109.108 518.667 108.666V102Z" fill="black" fill-opacity="0.42"/>
</svg>
